<?xml version="1.0" standalone="no"?>
<!DOCTYPE svg PUBLIC "-//W3C//DTD SVG 20010904//EN"
 "http://www.w3.org/TR/2001/REC-SVG-20010904/DTD/svg10.dtd">
<svg version="1.0" xmlns="http://www.w3.org/2000/svg"
 width="900.000000pt" height="1260.000000pt" viewBox="0 0 900.000000 1260.000000"
 preserveAspectRatio="xMidYMid meet">
<metadata>
Created by potrace 1.10, written by Peter Selinger 2001-2011
</metadata>
<g transform="translate(0.000000,1260.000000) scale(0.100000,-0.100000)"
fill="#000000" stroke="none">
<path d="M4376 12198 c-3 -13 -8 -40 -11 -60 -4 -28 -16 -46 -45 -69 -33 -27
-60 -71 -60 -100 0 -23 39 -6 50 21 11 27 17 30 59 30 38 0 52 -5 71 -25 21
-22 22 -31 17 -85 -7 -63 4 -87 47 -103 12 -5 15 -13 11 -27 -4 -12 -1 -27 5
-35 17 -20 44 -20 36 0 -7 20 -4 19 54 -11 36 -19 50 -32 50 -47 0 -27 49 -72
64 -57 35 35 -140 210 -210 210 -19 0 -25 4 -22 17 3 14 11 17 41 15 28 -3 37
0 37 12 0 18 -34 56 -51 56 -6 0 -8 8 -4 19 4 14 -10 36 -51 81 -53 56 -58 66
-62 116 -5 58 -18 80 -26 42z"/>
<path d="M3639 12134 c-7 -8 -9 -28 -5 -51 7 -41 9 -66 7 -98 -1 -11 0 -139 2
-285 4 -284 5 -290 61 -379 15 -23 38 -46 51 -51 14 -5 25 -18 25 -28 0 -23
34 -68 85 -114 45 -40 73 -52 94 -39 12 7 -5 29 -76 98 -49 48 -93 99 -98 112
-4 13 -22 43 -40 66 -44 58 -52 106 -26 151 27 45 26 47 -4 42 -20 -4 -24 -1
-24 16 0 12 0 102 0 201 -1 99 3 205 8 235 7 42 6 59 -5 70 -7 9 -11 25 -8 36
7 26 -29 39 -47 18z"/>
<path d="M5690 11910 c0 -22 -6 -55 -13 -73 -10 -23 -14 -106 -15 -311 0 -154
-4 -291 -6 -305 -10 -44 33 -463 48 -478 14 -14 21 14 25 93 2 69 0 89 -15
112 -16 23 -18 53 -20 229 -1 111 -5 207 -8 212 -4 5 1 26 11 45 14 31 15 41
3 75 -18 55 -8 259 14 293 26 39 15 148 -14 148 -6 0 -10 -18 -10 -40z"/>
<path d="M4165 11905 c-69 -17 -97 -31 -196 -98 -56 -37 -101 -77 -128 -112
-23 -30 -41 -57 -41 -60 0 -16 31 0 75 38 104 90 233 167 280 167 29 0 14 -18
-50 -59 -36 -23 -65 -46 -65 -51 0 -5 -13 -29 -30 -53 -16 -25 -30 -55 -30
-68 -1 -13 -7 -35 -15 -49 -19 -33 -19 -117 0 -170 8 -23 15 -51 15 -62 0 -11
14 -31 30 -45 17 -14 30 -35 30 -47 0 -50 134 -138 234 -152 47 -7 66 -26 66
-65 0 -33 11 -42 58 -43 28 -1 39 -7 52 -31 14 -25 24 -31 58 -33 34 -3 46 2
64 21 18 19 36 25 82 29 53 4 61 8 92 44 53 62 43 79 -29 49 -52 -21 -113 -19
-148 6 -16 11 -29 26 -29 32 0 7 19 28 42 47 99 84 102 89 67 126 l-21 22 -44
-30 c-49 -33 -56 -48 -20 -48 33 0 38 -11 17 -39 -16 -20 -19 -21 -31 -7 -12
15 -15 15 -33 -1 -15 -13 -21 -15 -24 -5 -5 14 -33 16 -33 2 0 -5 5 -10 10
-10 6 0 10 -4 10 -10 0 -15 -56 -12 -70 4 -6 8 -11 23 -10 33 1 10 2 39 1 65
-1 38 -6 51 -25 63 -43 29 -55 12 -49 -70 5 -59 3 -77 -10 -89 -26 -27 -39
-19 -31 19 7 40 -7 65 -37 65 -21 0 -26 -16 -7 -22 7 -3 5 -13 -7 -31 -20 -30
-37 -34 -55 -12 -7 8 -18 15 -26 15 -7 0 -37 24 -68 54 -38 38 -58 68 -67 98
-7 23 -17 48 -23 53 -6 6 -12 45 -14 88 -2 63 1 77 13 77 8 0 15 -9 15 -20 0
-13 7 -20 18 -20 29 0 42 -21 42 -67 0 -47 -14 -58 -24 -17 -4 15 -13 24 -22
22 -8 -2 -15 -6 -15 -10 1 -5 1 -17 1 -28 0 -11 6 -20 14 -20 9 0 16 -12 18
-27 3 -25 7 -28 47 -31 43 -3 43 -3 36 25 -3 15 -10 30 -15 33 -4 3 -11 39
-14 80 -8 119 -17 155 -41 164 -25 9 -17 25 46 87 53 52 65 59 100 59 35 0 39
-3 39 -25 0 -22 4 -25 35 -25 19 0 35 4 35 8 0 12 -39 52 -51 52 -6 0 -7 5 -4
10 3 6 17 10 31 10 33 0 31 28 -3 32 -33 4 -41 24 -13 33 20 6 20 7 -4 26 -27
21 -32 22 -101 4z m-125 -331 c0 -8 -7 -14 -15 -14 -15 0 -21 21 -9 33 10 9
24 -2 24 -19z m481 -530 c65 -48 66 -74 4 -74 -56 0 -95 32 -95 80 0 42 29 40
91 -6z"/>
<path d="M4617 11873 c-29 -8 -15 -25 32 -39 23 -7 59 -23 79 -37 20 -14 62
-40 92 -60 30 -19 65 -44 77 -56 23 -22 48 -27 57 -13 8 13 -86 105 -130 127
-21 11 -55 32 -74 47 -34 27 -97 42 -133 31z"/>
<path d="M4370 11860 c-16 -10 -15 -12 22 -27 21 -10 29 -9 39 3 6 8 10 16 8
18 -12 10 -56 14 -69 6z"/>
<path d="M4347 11753 c-16 -16 -16 -18 3 -38 25 -27 18 -51 -18 -63 l-27 -9
32 -16 c17 -9 34 -22 36 -29 4 -9 11 -6 24 10 10 12 27 22 38 21 34 -3 55 1
55 10 0 6 -19 11 -42 13 -39 3 -43 6 -46 32 -4 35 13 48 55 41 17 -3 34 -1 38
5 3 6 -4 10 -17 10 -13 0 -36 7 -52 15 -37 19 -58 19 -79 -2z"/>
<path d="M4120 11706 c0 -9 -11 -23 -25 -32 -28 -18 -33 -44 -10 -44 8 0 15 6
15 13 0 19 33 47 54 47 25 0 14 24 -12 28 -15 2 -22 -2 -22 -12z"/>
<path d="M4553 11664 c-3 -10 0 -22 8 -28 8 -6 19 -21 26 -33 11 -19 9 -23
-12 -37 -14 -9 -25 -23 -25 -30 0 -7 -7 -19 -15 -26 -16 -13 -21 -50 -7 -50 5
0 25 18 45 40 19 22 40 40 46 40 6 0 11 4 11 10 0 5 11 21 26 35 32 32 24 45
-27 45 -33 0 -41 4 -49 25 -11 29 -18 31 -27 9z"/>
<path d="M4142 11650 c-24 -23 -29 -50 -9 -50 14 0 57 -52 57 -69 0 -17 41
-91 51 -91 5 0 9 4 9 10 0 14 -43 94 -52 98 -4 2 -8 11 -8 21 0 9 -5 22 -12
29 -9 9 -9 15 0 24 16 16 15 48 -1 48 -7 0 -23 -9 -35 -20z"/>
<path d="M3062 11550 c-1 -52 2 -70 8 -59 6 10 6 40 1 75 l-9 59 0 -75z"/>
<path d="M4730 11561 c0 -31 4 -41 21 -46 34 -11 42 8 22 48 -24 49 -43 48
-43 -2z"/>
<path d="M5910 11562 c0 -15 138 -82 168 -82 15 0 37 -7 49 -15 12 -9 48 -20
80 -26 81 -14 174 -44 213 -68 29 -19 83 -41 99 -41 9 0 25 -7 35 -15 11 -8
38 -15 59 -15 34 0 38 2 27 15 -7 8 -19 15 -26 15 -8 0 -57 20 -110 45 -52 25
-106 45 -119 45 -12 0 -25 7 -29 15 -3 8 -12 15 -20 15 -9 0 -30 6 -48 14 -18
8 -98 35 -177 60 -137 44 -201 56 -201 38z"/>
<path d="M5078 11546 c-14 -10 -18 -28 -18 -79 0 -61 -3 -68 -45 -126 -25 -34
-45 -65 -45 -69 0 -5 -36 -45 -80 -89 -44 -44 -80 -83 -80 -87 0 -3 13 -6 29
-6 37 0 115 73 142 134 14 33 26 45 47 49 55 11 118 181 98 261 -7 29 -22 32
-48 12z"/>
<path d="M4658 11508 c-17 -20 -24 -48 -14 -48 10 0 56 48 56 59 0 18 -24 12
-42 -11z"/>
<path d="M4315 11508 c-6 -16 -9 -46 -7 -74 2 -24 50 -60 62 -47 5 4 5 35 2
68 -6 52 -10 60 -30 63 -12 2 -24 -3 -27 -10z"/>
<path d="M2627 11430 c-9 -11 -25 -20 -34 -20 -17 -1 -17 -1 0 -11 13 -8 33
-5 74 9 71 25 80 42 21 42 -31 0 -48 -6 -61 -20z"/>
<path d="M4731 11428 c-5 -13 -6 -27 -4 -31 7 -11 43 23 43 40 0 22 -30 15
-39 -9z"/>
<path d="M4250 11416 c0 -15 18 -31 26 -23 7 7 -7 37 -17 37 -5 0 -9 -6 -9
-14z"/>
<path d="M4671 11377 c-6 -14 -15 -28 -20 -32 -15 -9 -14 -45 2 -45 16 1 46
43 50 71 3 31 -21 36 -32 6z"/>
<path d="M2500 11370 c0 -5 6 -10 14 -10 8 0 18 5 21 10 3 6 -3 10 -14 10 -12
0 -21 -4 -21 -10z"/>
<path d="M2380 11345 c-14 -7 -41 -20 -60 -28 -44 -20 -120 -55 -140 -66 -57
-31 -80 -41 -92 -41 -14 0 -147 -66 -268 -134 -36 -19 -72 -39 -80 -43 -37
-18 -215 -126 -227 -139 -8 -8 -17 -14 -21 -14 -4 0 -36 -27 -71 -60 -35 -33
-71 -65 -80 -70 -13 -8 -13 -9 -1 -9 8 0 29 9 45 20 17 10 37 22 45 26 8 4 41
25 75 48 33 23 87 60 120 83 34 22 72 46 85 52 14 5 39 19 55 30 17 11 39 24
50 30 36 18 60 35 68 48 4 6 16 12 25 12 9 0 59 21 112 46 91 44 138 65 170
78 8 3 22 10 30 15 8 5 31 16 50 24 19 9 64 29 100 45 36 16 77 32 93 36 15 3
27 11 27 16 0 14 -81 11 -110 -5z"/>
<path d="M4290 11343 c0 -13 5 -23 10 -23 13 0 13 11 0 30 -8 12 -10 11 -10
-7z"/>
<path d="M3057 11311 c-4 -17 -4 -45 0 -62 6 -30 7 -31 20 -14 7 11 13 31 13
45 0 14 -6 34 -13 45 -13 17 -14 16 -20 -14z"/>
<path d="M4119 11294 c-13 -25 -12 -28 19 -55 l32 -29 21 21 c20 20 20 21 2
34 -10 8 -29 15 -42 15 -20 0 -22 3 -13 12 14 14 16 28 4 28 -5 0 -15 -12 -23
-26z"/>
<path d="M6673 11293 c-13 -5 36 -53 54 -53 5 0 16 -9 26 -20 9 -11 24 -20 33
-20 8 0 53 -18 100 -40 47 -22 92 -40 100 -40 8 0 17 -7 20 -15 3 -8 25 -24
47 -35 23 -12 64 -37 91 -56 27 -19 60 -37 75 -40 14 -4 42 -16 61 -29 19 -12
57 -35 84 -51 27 -16 60 -37 75 -46 14 -10 35 -22 46 -28 11 -6 40 -22 64 -35
27 -15 48 -22 54 -16 7 7 -151 121 -245 176 -10 5 -61 37 -115 69 -98 60 -200
115 -251 135 -15 6 -40 20 -57 31 -44 28 -108 57 -146 65 -19 4 -45 15 -59 25
-37 25 -44 28 -57 23z"/>
<path d="M2820 11253 c-50 -34 -48 -46 11 -70 54 -21 47 -42 -20 -64 -29 -9
-67 -31 -84 -47 -30 -30 -30 -32 -17 -74 29 -94 84 -217 98 -223 15 -5 93 20
152 48 22 11 63 61 72 89 2 6 10 8 16 4 8 -5 12 -37 12 -92 0 -82 11 -107 26
-61 9 25 7 301 -2 329 -7 24 -25 23 -31 -2 -5 -19 -54 -39 -98 -40 -24 -1 -55
-22 -55 -38 0 -7 17 -23 39 -36 34 -22 61 -69 47 -83 -7 -7 -77 -25 -105 -26
-21 -2 -28 7 -48 58 -13 33 -29 70 -35 82 -15 31 -3 53 29 53 15 1 50 9 78 18
43 15 50 21 56 51 10 48 -2 71 -54 109 -52 37 -54 38 -87 15z"/>
<path d="M2651 11236 c-16 -19 -3 -46 26 -57 19 -7 24 -15 20 -29 -7 -28 4
-25 43 13 31 30 32 32 11 35 -11 2 -21 10 -21 17 0 30 -59 45 -79 21z"/>
<path d="M5892 11212 c-41 -12 -28 -27 30 -34 63 -8 121 -34 170 -76 18 -16
63 -48 100 -71 37 -24 65 -47 62 -52 -3 -5 -29 -9 -59 -9 -63 0 -136 -28 -168
-65 l-22 -26 -48 17 c-38 13 -54 14 -73 5 -45 -20 -28 -38 60 -67 81 -26 87
-27 155 -15 39 7 71 17 71 22 0 5 -7 9 -15 9 -8 0 -19 10 -26 22 -10 18 -8 24
12 39 30 23 39 23 68 3 14 -10 21 -23 18 -34 -3 -13 4 -22 24 -30 16 -7 29
-14 29 -17 0 -17 -24 -43 -40 -43 -10 0 -26 -3 -35 -6 -14 -6 -13 -9 6 -30 12
-13 29 -24 36 -24 8 0 34 -9 59 -20 54 -25 60 -55 14 -71 -39 -14 -29 -29 18
-29 23 0 50 10 74 26 37 26 39 26 58 9 27 -24 25 -35 -10 -75 -36 -43 -37 -50
-4 -50 38 0 87 34 109 73 22 42 15 64 -25 74 -48 13 -40 28 18 31 59 3 69 17
20 27 -53 11 -78 32 -78 64 0 38 41 87 80 94 54 11 25 37 -42 37 -15 0 -30 5
-33 10 -3 6 -16 10 -27 10 -20 0 -151 76 -180 103 -49 46 -139 105 -233 152
-50 25 -120 31 -173 17z m575 -316 c3 -3 -8 -21 -26 -41 -17 -20 -31 -42 -31
-49 0 -8 -8 -24 -18 -36 -17 -21 -21 -22 -58 -10 l-39 13 32 14 c45 18 67 54
58 94 l-7 32 42 -6 c23 -3 44 -8 47 -11z"/>
<path d="M4075 11030 c-8 -13 94 -109 116 -110 9 0 22 7 30 16 11 13 8 19 -17
39 -16 14 -33 24 -38 25 -5 0 -17 6 -25 14 -23 20 -58 29 -66 16z"/>
<path d="M2150 10878 c-38 -52 -39 -73 -5 -64 34 9 33 -16 -2 -63 -20 -26 -28
-50 -31 -93 -4 -58 -4 -59 38 -100 43 -40 44 -40 107 -35 l64 5 30 -42 c39
-53 55 -62 68 -37 8 15 6 30 -9 63 -23 52 -26 94 -5 102 8 3 15 14 15 23 0 10
8 30 17 43 11 16 17 44 17 78 0 50 -3 57 -37 88 -40 37 -80 44 -134 23 -25 -9
-31 -7 -54 20 -14 17 -31 31 -37 31 -7 0 -25 -19 -42 -42z m217 -110 c18 -17
23 -32 23 -69 0 -80 -32 -75 -76 13 -13 26 -24 54 -24 63 0 23 50 19 77 -7z
m-138 -69 c35 -57 39 -79 13 -79 -39 0 -85 87 -62 115 7 8 13 15 15 15 1 0 16
-23 34 -51z"/>
<path d="M6738 10683 c31 -4 32 -6 32 -48 0 -34 5 -47 19 -55 28 -15 81 -12
87 4 9 24 -23 86 -45 86 -11 0 -23 5 -26 10 -3 6 -27 9 -53 8 -37 -1 -40 -2
-14 -5z"/>
<path d="M6916 10605 c-19 -18 -37 -43 -41 -54 -13 -43 -41 -39 -166 25 -58
30 -89 31 -89 4 0 -15 19 -28 75 -55 42 -19 85 -35 96 -35 11 0 33 -10 49 -21
24 -19 33 -20 61 -10 40 14 39 14 39 -4 0 -7 -8 -19 -17 -25 -17 -9 -17 -11 4
-27 12 -10 46 -33 77 -52 81 -49 83 -54 52 -102 -30 -45 -28 -69 6 -69 13 0
47 -3 77 -7 40 -4 52 -3 47 5 -4 7 -16 12 -27 12 -23 0 -24 21 -4 60 11 21 23
30 40 30 30 0 39 14 20 30 -12 10 -12 15 2 36 19 30 58 32 74 2 10 -18 8 -24
-11 -38 -19 -14 -20 -18 -6 -29 22 -18 93 -5 107 20 13 25 -15 78 -52 97 -35
19 -135 9 -162 -16 -38 -33 -45 -33 -96 -2 -47 29 -49 33 -39 56 8 18 8 31 0
49 -7 15 -8 25 -2 25 6 0 19 9 30 20 46 46 6 110 -68 110 -34 0 -48 -6 -76
-35z"/>
<path d="M7254 10526 c-3 -8 -4 -25 -2 -38 2 -19 10 -24 40 -26 29 -3 38 1 43
17 10 32 -11 61 -46 61 -16 0 -32 -6 -35 -14z"/>
<path d="M1743 10485 c-17 -21 -37 -35 -50 -35 -13 0 -34 -15 -53 -40 -24 -30
-39 -40 -61 -40 -16 0 -29 -3 -29 -8 0 -4 -20 -28 -45 -54 -25 -26 -45 -56
-45 -68 0 -11 18 -38 40 -60 22 -22 40 -48 40 -58 0 -10 -21 -34 -46 -53 -51
-37 -98 -103 -90 -124 8 -23 59 9 137 85 69 68 84 102 59 133 -5 7 -23 28 -40
48 -33 40 -39 73 -14 83 18 7 38 -6 69 -44 11 -14 32 -38 47 -55 26 -29 28
-29 45 -12 17 17 17 19 1 45 -31 50 -68 121 -68 132 0 5 13 10 29 10 22 0 35
-9 57 -42 16 -24 32 -51 36 -60 11 -26 55 -23 63 3 5 15 -2 33 -24 63 -48 62
-56 83 -42 100 18 21 42 4 93 -66 l42 -58 23 22 c13 12 23 25 23 29 0 7 -29
45 -95 127 -36 43 -66 42 -102 -3z"/>
<path d="M3041 10463 c-18 -17 -20 -23 -9 -23 17 0 42 25 36 37 -1 4 -14 -2
-27 -14z"/>
<path d="M7370 10455 c-31 -37 32 -87 67 -53 15 16 15 19 -1 42 -18 29 -47 34
-66 11z"/>
<path d="M5860 10451 c0 -5 17 -24 38 -42 34 -31 78 -53 242 -119 75 -31 413
-197 453 -224 18 -11 54 -32 80 -46 62 -32 65 -34 167 -101 47 -31 102 -64
122 -73 20 -10 42 -24 49 -32 6 -8 15 -14 20 -14 17 0 206 -135 274 -195 39
-35 91 -80 116 -99 24 -19 89 -85 144 -146 55 -62 125 -140 155 -174 49 -53
89 -106 125 -163 6 -9 22 -30 38 -47 15 -17 27 -34 27 -39 0 -7 78 -116 110
-154 5 -7 10 -17 10 -24 0 -6 13 -28 28 -48 16 -20 32 -43 35 -51 4 -8 16 -28
27 -45 11 -16 24 -39 30 -50 5 -11 15 -29 22 -40 25 -44 29 -51 39 -77 6 -16
15 -28 20 -28 5 0 9 -4 9 -10 0 -5 11 -26 25 -46 21 -31 25 -33 25 -15 0 11
-4 21 -10 21 -5 0 -10 7 -10 16 0 8 -12 36 -27 62 -44 74 -50 84 -73 132 -12
25 -26 52 -31 60 -5 8 -12 23 -15 33 -4 9 -10 17 -14 17 -5 0 -12 10 -16 23
-4 12 -22 42 -40 67 -19 25 -37 50 -41 56 -18 23 -34 50 -42 70 -5 12 -20 30
-33 40 -13 11 -27 26 -31 34 -35 70 -134 208 -198 275 -205 213 -288 297 -316
318 -16 12 -62 52 -102 89 -68 63 -136 113 -211 154 -19 10 -39 24 -45 30 -47
53 -168 125 -298 178 -44 18 -105 71 -118 103 -9 25 -99 74 -197 109 -34 13
-75 32 -90 42 -27 19 -162 75 -257 107 -27 9 -57 22 -65 29 -36 30 -150 59
-150 37z"/>
<path d="M2845 10396 c-44 -18 -105 -45 -135 -60 -30 -16 -71 -35 -90 -44 -19
-8 -42 -19 -50 -24 -8 -4 -22 -11 -30 -14 -22 -9 -92 -43 -110 -54 -8 -4 -30
-14 -49 -21 -19 -7 -50 -28 -69 -46 -18 -18 -38 -33 -43 -33 -21 0 -86 -37
-109 -62 -13 -16 -30 -28 -36 -28 -6 0 -17 -7 -24 -15 -7 -8 -23 -15 -36 -15
-16 0 -28 -10 -39 -30 -11 -21 -23 -30 -41 -30 -24 0 -113 -75 -101 -86 2 -3
11 2 19 10 17 16 88 56 101 56 5 0 34 18 64 40 31 22 62 40 68 40 7 0 20 10
31 21 10 12 33 28 49 36 31 14 37 17 120 70 27 17 64 37 80 44 17 7 46 25 65
39 19 15 68 37 107 49 40 12 75 26 78 32 4 5 21 9 40 9 19 0 36 4 40 9 3 5 19
13 36 16 56 12 113 43 146 78 30 33 33 48 9 47 -6 -1 -47 -16 -91 -34z"/>
<path d="M4080 10370 c-126 -10 -313 -37 -420 -60 -52 -11 -116 -25 -141 -30
-25 -5 -56 -13 -70 -18 -13 -6 -42 -15 -64 -20 -301 -80 -624 -210 -842 -339
-39 -24 -73 -43 -76 -43 -2 0 -37 -19 -78 -43 -316 -183 -629 -440 -916 -753
-98 -107 -166 -188 -226 -268 -37 -50 -71 -95 -75 -101 -4 -5 -19 -28 -32 -50
-13 -22 -27 -42 -30 -45 -3 -3 -17 -23 -30 -45 -13 -22 -26 -42 -29 -45 -4 -3
-17 -27 -31 -53 -14 -27 -33 -63 -42 -80 -24 -44 -22 -51 7 -30 13 10 25 22
25 27 0 4 14 25 30 46 17 21 30 41 30 45 0 4 14 24 30 45 17 21 30 43 30 48 0
6 6 17 13 24 7 7 25 33 40 58 15 25 63 82 107 128 44 45 80 91 80 101 0 10 31
50 70 88 38 39 72 83 76 98 5 19 19 32 45 43 21 10 89 67 151 128 162 158 402
348 576 455 48 30 108 75 134 100 26 25 67 54 90 64 24 10 50 24 58 30 14 11
114 51 225 91 28 9 55 21 60 24 21 15 245 101 364 141 128 42 318 94 406 110
28 5 77 15 110 21 33 6 89 15 125 19 36 3 94 13 130 20 99 20 839 18 935 -3
51 -11 77 -13 99 -5 20 7 39 7 60 -1 42 -14 165 -49 199 -56 25 -6 26 -5 15
13 -35 56 -215 96 -548 121 -132 10 -545 10 -670 0z"/>
<path d="M1388 10349 c-11 -6 -18 -22 -18 -39 0 -26 4 -30 29 -30 28 0 61 22
61 39 0 11 -34 41 -46 41 -5 0 -17 -5 -26 -11z"/>
<path d="M7418 10259 c20 -21 14 -56 -13 -77 -24 -19 -59 -20 -71 -1 -7 12
-91 12 -98 0 -3 -5 12 -11 34 -15 22 -3 40 -11 40 -16 0 -6 12 -15 26 -20 14
-6 50 -30 78 -55 59 -50 88 -64 124 -57 24 5 24 5 5 16 -36 20 -93 75 -93 90
0 9 16 31 35 50 19 20 35 40 35 45 0 15 -30 41 -48 41 -9 0 -28 3 -42 6 -21 6
-23 4 -12 -7z"/>
<path d="M4110 10190 c-112 -9 -317 -37 -330 -45 -5 -3 -37 -10 -72 -15 -70
-10 -129 -23 -374 -84 -58 -14 -176 -57 -217 -77 -9 -5 -39 -16 -65 -25 -53
-18 -99 -38 -225 -101 -49 -23 -92 -43 -97 -43 -6 0 -31 -13 -57 -29 -27 -15
-79 -46 -117 -67 -117 -66 -150 -86 -194 -115 -24 -16 -47 -29 -52 -29 -4 0
-10 -3 -12 -7 -1 -5 -21 -20 -43 -35 -22 -15 -53 -39 -69 -53 -16 -14 -32 -25
-35 -25 -9 0 -91 -74 -91 -83 0 -26 70 11 176 94 34 27 64 49 67 49 3 0 41 24
84 53 43 29 111 70 151 90 40 21 94 50 120 66 49 29 278 141 288 141 3 0 20 6
37 14 136 62 284 116 316 116 9 0 21 4 26 9 6 5 30 14 55 19 25 6 72 18 105
27 33 9 89 23 125 30 36 8 81 19 100 25 19 5 50 10 68 10 18 0 42 5 52 10 11
6 56 15 102 20 46 6 110 14 143 19 33 5 216 10 408 10 319 1 380 6 330 26 -26
10 -591 14 -703 5z"/>
<path d="M4852 10158 c3 -7 31 -17 64 -21 32 -4 82 -13 109 -18 28 -6 79 -13
115 -15 36 -3 74 -10 86 -15 12 -6 32 -9 45 -6 19 3 18 5 -8 6 -18 0 -36 8
-41 17 -6 10 -30 18 -68 23 -32 4 -68 12 -79 18 -11 6 -67 13 -123 17 -81 5
-103 3 -100 -6z"/>
<path d="M1132 10143 c-5 -10 -15 -35 -22 -56 -10 -32 -9 -42 4 -62 13 -19 15
-39 10 -94 -7 -70 -7 -71 26 -101 25 -23 41 -30 74 -30 23 0 51 7 62 15 24 18
53 19 56 3 1 -7 2 -33 2 -57 1 -53 21 -71 60 -53 24 10 26 17 26 70 0 52 -3
61 -30 87 -24 23 -30 37 -30 70 0 22 5 46 11 52 18 18 1 83 -31 115 -31 31
-62 35 -100 13 -43 -25 -77 -19 -89 15 -12 35 -17 37 -29 13z m185 -125 c23
-21 31 -62 15 -72 -13 -8 -85 70 -78 83 11 17 38 13 63 -11z m-89 -90 c42 -54
41 -65 -4 -54 -36 9 -64 42 -64 76 0 44 22 37 68 -22z"/>
<path d="M7816 10121 c-3 -5 6 -14 22 -20 15 -5 36 -18 47 -28 25 -22 85 -110
85 -125 0 -5 14 -30 30 -55 17 -24 30 -47 30 -50 0 -11 -147 -146 -190 -174
-43 -29 -48 -30 -122 -23 -66 6 -78 4 -78 -8 0 -10 14 -18 38 -22 58 -9 178
-7 208 4 14 6 72 56 127 111 99 99 100 100 124 84 28 -19 46 -12 20 8 -9 6
-37 55 -63 107 -53 109 -91 153 -153 181 -45 20 -116 26 -125 10z"/>
<path d="M5966 10061 c-7 -11 30 -43 79 -68 95 -48 332 -170 350 -181 204
-114 452 -287 584 -407 31 -28 90 -80 131 -115 41 -36 79 -71 83 -77 13 -20
27 -15 27 10 -1 12 -15 43 -33 68 -31 45 -167 174 -217 207 -14 9 -40 29 -58
44 -19 16 -50 40 -70 53 -20 13 -73 50 -118 83 -77 56 -201 134 -294 185 -170
92 -227 121 -318 161 -101 45 -136 54 -146 37z"/>
<path d="M4308 9953 c-26 -6 -22 -42 7 -69 16 -15 25 -34 25 -53 0 -39 -14
-47 -29 -15 -11 24 -13 25 -34 11 -13 -8 -23 -27 -25 -45 -2 -22 -16 -41 -48
-67 -49 -41 -53 -54 -24 -80 24 -22 42 -15 109 45 25 22 52 40 60 40 9 0 31 9
49 20 42 26 56 25 86 -5 25 -25 28 -26 163 -23 l138 3 10 52 c19 99 60 95 48
-5 -6 -52 -5 -54 17 -50 19 2 26 12 35 56 14 59 19 67 35 57 7 -5 10 -31 8
-74 l-3 -66 69 -9 c47 -7 74 -6 86 1 13 9 23 8 41 -2 62 -36 116 -56 143 -53
41 4 39 22 -3 26 -30 3 -33 6 -27 30 18 89 18 88 -9 120 -22 27 -34 32 -69 32
-23 0 -63 -7 -88 -16 -42 -14 -47 -19 -53 -55 -4 -22 -12 -39 -20 -39 -10 0
-12 14 -8 62 5 51 3 63 -12 74 -10 8 -29 11 -42 8 -13 -4 -36 -2 -51 4 -15 6
-39 13 -54 16 -20 5 -27 13 -30 34 -2 21 -9 28 -31 30 -37 4 -46 -22 -18 -52
19 -20 20 -24 6 -36 -9 -7 -15 -29 -15 -51 0 -29 -4 -39 -16 -39 -14 0 -16 7
-11 40 6 46 -10 62 -56 53 -35 -7 -44 -21 -22 -37 24 -17 16 -61 -10 -61 -16
0 -20 6 -19 33 2 36 -10 41 -38 15 -17 -15 -20 -15 -28 -3 -16 25 -11 38 25
67 64 51 28 61 -45 13 -25 -16 -50 -30 -56 -30 -19 0 -54 -46 -54 -71 0 -19
-2 -21 -10 -9 -5 8 -10 35 -10 60 0 34 5 48 20 58 41 26 12 70 -34 52 -15 -6
-35 -6 -44 -2 -9 5 -25 7 -34 5z m870 -170 c2 -9 -7 -13 -27 -13 -30 0 -46 11
-34 24 11 11 56 2 61 -11z m-928 -89 c0 -16 -16 -19 -25 -4 -8 13 4 32 16 25
5 -4 9 -13 9 -21z m950 11 c0 -8 -7 -15 -16 -15 -14 0 -14 3 -4 15 7 8 14 15
16 15 2 0 4 -7 4 -15z"/>
<path d="M1023 9874 c-70 -70 -72 -124 -5 -115 32 4 52 -16 52 -53 -1 -32 -53
-98 -106 -133 -19 -12 -24 -23 -22 -47 5 -53 31 -44 96 35 l60 72 5 86 c3 64
1 92 -9 109 -13 19 -12 25 2 47 17 27 13 56 -8 54 -7 -1 -37 -26 -65 -55z"/>
<path d="M5830 9910 c0 -6 8 -13 18 -16 9 -3 35 -14 57 -24 22 -10 67 -30 100
-45 88 -39 192 -91 260 -129 33 -19 81 -45 106 -59 26 -14 75 -43 109 -66 34
-23 64 -41 67 -41 2 0 15 -8 28 -17 12 -10 33 -25 45 -33 12 -8 31 -23 42 -32
12 -10 24 -18 27 -18 3 0 17 -10 31 -23 14 -12 54 -45 90 -72 143 -108 353
-310 469 -451 78 -93 128 -150 139 -157 6 -4 12 -12 12 -18 0 -5 34 -55 75
-109 41 -54 75 -103 75 -109 0 -5 4 -11 8 -13 7 -2 95 -147 155 -253 42 -75
167 -329 167 -339 0 -8 12 -40 26 -72 26 -58 76 -205 129 -379 15 -49 34 -107
41 -128 8 -20 14 -53 14 -71 0 -19 7 -47 15 -62 8 -16 15 -53 15 -82 0 -29 5
-63 11 -74 14 -26 26 -155 42 -450 7 -119 15 -220 19 -223 4 -4 12 12 18 36
15 54 4 338 -16 424 -7 33 -14 94 -14 136 0 42 -4 89 -10 105 -5 16 -14 56
-19 89 -23 151 -57 285 -126 495 -46 138 -54 161 -98 252 -20 42 -37 81 -37
85 0 19 -181 365 -206 394 -8 8 -14 19 -14 23 0 23 -255 375 -364 501 -82 96
-284 296 -381 379 -44 37 -103 88 -132 112 -28 25 -69 57 -89 70 -36 25 -117
84 -139 102 -5 4 -17 11 -25 15 -8 4 -27 15 -42 25 -161 104 -367 215 -533
286 -16 7 -47 21 -68 30 -42 18 -97 21 -97 6z"/>
<path d="M3877 9874 c-24 -13 -32 -25 -28 -46 0 -5 -10 -8 -22 -8 -13 0 -31
-8 -40 -18 -22 -24 -7 -46 28 -40 30 6 65 -23 65 -54 0 -32 28 -31 72 3 76 58
89 89 39 89 -30 0 -71 38 -71 66 0 21 -13 23 -43 8z"/>
<path d="M5465 9879 c-4 -6 1 -17 11 -24 16 -12 21 -12 33 0 7 7 10 18 7 24
-9 14 -43 14 -51 0z"/>
<path d="M8221 9852 c-15 -28 -14 -67 2 -79 19 -16 66 -21 76 -9 18 21 22 61
9 78 -7 10 -27 21 -45 24 -25 5 -33 2 -42 -14z"/>
<path d="M5566 9825 c-9 -24 -8 -25 15 -25 14 0 19 5 17 17 -4 23 -24 27 -32
8z"/>
<path d="M5397 9824 c-13 -13 5 -24 37 -24 19 0 44 -9 57 -19 l24 -19 -33 -94
-32 -93 22 -17 c25 -19 132 -58 159 -58 10 0 35 -11 55 -25 21 -14 54 -28 75
-31 25 -4 44 -16 58 -34 30 -41 29 -50 -4 -69 -37 -21 -45 -56 -16 -66 27 -8
59 2 94 31 16 13 40 24 55 24 29 0 156 -74 338 -197 66 -45 84 -53 124 -53 25
0 55 7 66 15 20 15 56 20 67 9 18 -18 -118 -164 -152 -164 -22 0 -36 -16 -22
-24 5 -4 30 -9 56 -13 l47 -6 60 64 c76 81 148 175 148 193 0 20 -27 39 -45
32 -9 -3 -15 -18 -15 -36 0 -47 -43 -38 -106 22 -41 39 -87 37 -92 -4 -5 -38
-25 -53 -51 -36 -28 17 -26 44 6 91 32 46 25 64 -33 84 -70 24 -67 22 -54 38
6 7 10 24 8 37 -2 18 -9 23 -33 23 -27 0 -30 -3 -27 -27 l3 -27 -113 1 c-62 1
-116 3 -121 5 -4 3 7 18 24 34 26 24 30 34 24 57 -3 15 -14 35 -23 46 -9 10
-17 32 -17 50 0 27 -4 31 -28 34 -17 2 -45 -7 -72 -22 -24 -14 -50 -26 -59
-26 -8 0 -26 -14 -39 -31 l-24 -31 -31 22 -30 22 20 44 c10 24 16 49 13 54 -3
6 -30 10 -60 10 -50 0 -75 -6 -133 -33 -36 -17 -47 2 -33 58 14 56 38 95 58
95 18 0 105 -57 116 -76 13 -23 39 -17 35 8 -3 19 -37 47 -78 64 -29 12 -85
37 -112 51 -14 7 -36 13 -48 13 -12 0 -28 7 -36 15 -15 15 -65 21 -77 9z m297
-243 c3 -4 -1 -17 -9 -27 -11 -15 -17 -17 -32 -8 -10 6 -19 19 -21 28 -3 12 4
16 27 16 16 0 32 -4 35 -9z m220 -89 c3 -5 -2 -19 -11 -31 -18 -27 -39 -14
-28 18 6 21 29 28 39 13z m76 -52 c0 -20 -25 -38 -36 -27 -8 7 15 47 26 47 6
0 10 -9 10 -20z m189 -123 c13 -16 5 -27 -21 -27 -18 0 -25 20 -11 33 10 10
19 8 32 -6z m141 -45 c0 -10 -11 -29 -25 -42 -20 -19 -27 -21 -40 -10 -19 16
-19 29 2 52 22 24 63 24 63 0z"/>
<path d="M1705 9717 c-53 -40 -67 -55 -60 -67 4 -7 18 -4 43 11 50 30 83 60
76 70 -8 14 -27 10 -59 -14z"/>
<path d="M8226 9718 c16 -52 65 -99 141 -139 36 -18 93 -30 93 -18 0 4 -40 36
-88 73 -48 36 -96 74 -107 86 -25 28 -48 27 -39 -2z"/>
<path d="M2966 9685 c-20 -20 -21 -51 -2 -62 15 -9 46 -76 46 -101 0 -12 -3
-13 -12 -4 -18 18 -46 14 -58 -8 -9 -18 -6 -25 19 -49 17 -16 31 -38 31 -49 0
-34 39 -35 105 -2 33 16 91 43 129 60 80 36 126 78 126 114 0 28 26 59 42 50
6 -4 8 -22 5 -41 -4 -22 -2 -36 7 -39 16 -6 139 40 144 54 2 6 -15 12 -39 14
-35 2 -45 8 -59 33 -20 37 -52 43 -79 16 -26 -26 -111 -30 -131 -6 -18 21 -43
19 -59 -7 -12 -19 -11 -23 5 -35 15 -11 16 -17 6 -33 -20 -33 -14 -43 14 -21
30 23 100 29 107 9 7 -21 -12 -48 -36 -48 -12 0 -31 -7 -41 -15 -11 -8 -30
-15 -42 -15 -13 0 -26 -4 -29 -10 -3 -5 -10 -10 -16 -10 -5 0 -9 5 -9 10 0 6
7 10 15 10 10 0 15 10 15 28 l-1 27 -22 -27 c-34 -42 -50 -35 -77 30 -33 81
-63 135 -76 139 -7 2 -19 -3 -28 -12z"/>
<path d="M8003 9650 c-29 -27 -53 -57 -53 -68 0 -10 19 -37 43 -59 78 -75 252
-281 269 -318 22 -49 63 -42 53 8 -7 34 -73 137 -87 137 -21 0 -4 31 37 64 39
32 45 43 45 74 0 50 -8 59 -68 82 -72 28 -87 26 -111 -15 -21 -36 -47 -45 -69
-23 -20 20 -14 37 28 77 46 44 50 63 15 79 -39 18 -46 15 -102 -38z m237 -139
c0 -18 -52 -71 -70 -71 -33 0 -31 17 5 41 19 13 35 27 35 32 0 4 7 7 15 7 8 0
15 -4 15 -9z"/>
<path d="M3102 9628 c-18 -18 -15 -36 10 -44 22 -7 52 19 45 41 -5 15 -40 18
-55 3z"/>
<path d="M8325 9510 c3 -5 11 -10 17 -10 6 0 16 -6 22 -14 6 -7 26 -16 44 -20
28 -5 32 -3 24 10 -5 9 -27 23 -48 30 -47 16 -67 18 -59 4z"/>
<path d="M2893 9437 c-13 -21 -23 -43 -23 -48 0 -23 -25 -1 -34 29 -10 38 -21
40 -53 11 l-22 -22 -10 27 c-12 31 -34 32 -76 5 -16 -10 -40 -23 -52 -28 -11
-5 -24 -15 -28 -20 -3 -6 -15 -11 -25 -11 -11 0 -24 -9 -30 -19 -27 -51 0 -54
67 -8 26 17 50 35 51 40 2 4 13 7 25 7 17 0 29 -15 51 -61 30 -65 27 -83 -15
-77 -17 2 -25 10 -27 28 -6 50 -14 57 -28 25 -17 -39 -17 -86 -1 -110 21 -27
61 -12 118 45 30 30 55 47 64 44 25 -10 125 62 125 90 0 7 -11 18 -24 24 -16
7 -26 21 -28 39 l-3 28 -22 -38z"/>
<path d="M6163 9463 c-17 -6 -16 -38 2 -53 19 -15 55 -3 55 19 0 31 -26 47
-57 34z"/>
<path d="M4380 9449 c-14 -6 -88 -10 -165 -10 -117 -1 -147 -4 -185 -20 -24
-11 -54 -19 -65 -18 -39 3 -60 -1 -49 -9 7 -4 88 -4 180 -1 323 13 491 10 654
-11 277 -35 313 -41 329 -49 9 -5 36 -12 61 -16 25 -4 77 -18 115 -30 39 -13
91 -26 118 -30 26 -4 49 -11 52 -15 3 -5 24 -11 47 -15 23 -4 59 -18 80 -31
21 -13 45 -24 53 -24 9 0 35 -10 58 -22 68 -35 76 -38 96 -38 10 0 45 -19 77
-43 33 -23 86 -51 119 -62 64 -21 125 -52 125 -64 0 -4 10 -13 23 -18 13 -6
45 -30 73 -53 27 -24 63 -49 81 -57 18 -7 33 -18 33 -23 0 -5 21 -25 47 -45
26 -20 100 -87 165 -150 64 -63 121 -115 126 -115 5 0 28 -28 50 -63 25 -39
55 -71 76 -82 20 -11 36 -25 36 -31 0 -15 19 -30 48 -38 34 -11 28 14 -16 59
-20 22 -48 54 -60 70 -57 73 -185 205 -276 284 -118 103 -321 255 -396 297
-19 10 -39 25 -43 32 -4 6 -17 12 -27 12 -10 0 -22 5 -25 10 -4 6 -25 20 -48
31 -23 12 -51 29 -62 38 -11 9 -38 23 -59 30 -22 8 -61 26 -88 42 -27 16 -54
29 -61 29 -7 0 -36 11 -65 25 -104 48 -304 112 -507 162 -120 29 -307 52 -467
58 -89 3 -179 8 -198 10 -19 2 -46 -1 -60 -6z"/>
<path d="M1348 9393 c-15 -16 -57 -57 -93 -93 -36 -36 -68 -73 -71 -82 -3 -10
-10 -18 -15 -18 -5 0 -9 -7 -9 -15 0 -31 38 -13 75 36 33 42 119 141 138 158
17 16 23 41 9 41 -4 0 -20 -12 -34 -27z"/>
<path d="M3530 9305 c-14 -8 -35 -14 -46 -15 -28 0 -69 -33 -60 -48 4 -7 13
-12 19 -12 14 0 81 32 100 48 7 6 23 12 36 14 14 1 26 9 29 16 5 17 -46 15
-78 -3z"/>
<path d="M1691 9032 c-75 -76 -171 -183 -214 -238 -92 -118 -197 -262 -197
-270 0 -3 -13 -23 -28 -43 -16 -20 -32 -43 -35 -51 -4 -8 -16 -28 -27 -45 -11
-16 -23 -37 -27 -45 -4 -8 -17 -30 -29 -48 -12 -18 -32 -54 -44 -80 -12 -26
-32 -67 -45 -92 -67 -129 -125 -257 -125 -273 0 -7 -7 -22 -15 -33 -8 -10 -15
-25 -15 -32 0 -8 -6 -28 -14 -45 -29 -68 -39 -94 -53 -137 -41 -128 -68 -232
-84 -317 -5 -29 -14 -64 -19 -78 -6 -15 -10 -43 -10 -65 0 -21 -7 -51 -15 -66
-8 -16 -15 -45 -15 -65 0 -20 -7 -74 -14 -120 -41 -236 -23 -911 30 -1095 8
-28 14 -62 14 -75 0 -54 61 -289 117 -454 14 -38 27 -79 30 -90 2 -11 9 -29
13 -40 42 -99 50 -120 50 -135 0 -19 37 -57 46 -47 10 9 -43 184 -89 297 -16
40 -41 119 -48 155 -4 22 -19 83 -33 135 -15 52 -26 105 -26 118 0 13 -4 31
-10 41 -10 19 -35 172 -50 301 -5 41 -13 109 -19 150 -13 101 -14 424 -2 535
5 50 14 135 20 190 19 186 34 280 47 307 8 15 14 41 14 57 0 26 16 84 75 272
8 26 15 52 15 59 0 7 6 26 13 43 8 18 29 70 47 117 53 140 132 324 141 335 5
5 9 19 9 31 0 13 11 35 25 50 14 16 36 48 49 73 33 64 48 90 79 138 15 24 27
46 27 51 0 6 83 131 110 166 15 18 90 114 149 191 30 39 76 93 102 120 69 73
89 96 134 154 22 29 52 66 68 83 26 30 34 48 21 48 -3 0 -68 -62 -143 -138z"/>
<path d="M7290 9158 c1 -22 37 -58 59 -58 28 0 26 20 -3 48 -26 24 -56 29 -56
10z"/>
<path d="M1092 9098 c-12 -18 -18 -35 -15 -38 3 -3 8 1 11 9 2 7 13 21 23 29
20 18 25 32 10 32 -5 0 -18 -15 -29 -32z"/>
<path d="M2325 9084 c-37 -29 -49 -30 -75 -4 -26 26 -36 25 -44 -2 -3 -15 3
-35 19 -58 31 -45 31 -53 1 -69 -27 -15 -48 -7 -40 14 4 9 -3 18 -19 24 -14 5
-28 15 -32 20 -15 25 -52 9 -103 -42 -58 -58 -78 -105 -58 -133 12 -16 17 -16
74 4 l61 20 -11 -21 c-6 -12 -33 -42 -59 -66 l-49 -43 -29 31 c-18 19 -39 31
-54 31 -28 0 -57 -32 -57 -63 0 -27 -29 -77 -44 -77 -7 0 -19 6 -25 14 -10 11
-7 24 11 58 25 48 49 128 38 128 -13 0 -46 -46 -69 -97 -11 -25 -31 -29 -48
-12 -6 6 -23 9 -39 7 -23 -2 -30 -9 -32 -30 -3 -22 2 -29 22 -34 14 -3 26 -8
26 -11 0 -16 -49 -68 -105 -113 -36 -29 -72 -65 -80 -81 -20 -38 -20 -109 0
-109 8 0 15 9 15 19 0 11 18 35 41 53 23 18 59 48 80 66 25 22 44 32 56 28 10
-3 47 -33 83 -66 44 -41 68 -71 75 -97 l11 -38 8 38 c10 52 -14 97 -85 159
-33 28 -59 55 -59 59 0 15 37 10 50 -6 7 -9 30 -29 51 -46 l37 -29 104 117
c140 159 286 303 308 303 11 0 22 -5 25 -10 10 -16 35 8 35 34 0 22 17 46 32
46 5 0 13 -11 18 -25 13 -35 28 -31 35 9 9 46 0 70 -38 99 l-33 25 -29 -24z
m-230 -134 c9 -15 -12 -47 -35 -53 -30 -8 -34 11 -8 38 25 27 34 30 43 15z
m-200 -330 c0 -8 -10 -16 -22 -18 -18 -3 -23 2 -23 18 0 16 5 21 23 18 12 -2
22 -10 22 -18z"/>
<path d="M1002 8990 c-15 -19 -19 -31 -12 -35 7 -4 14 2 17 14 3 12 9 21 13
21 4 0 10 7 14 15 9 24 -7 16 -32 -15z"/>
<path d="M7464 8977 c-7 -18 47 -102 130 -204 56 -69 76 -78 76 -35 0 32 -110
178 -178 236 -19 17 -22 17 -28 3z"/>
<path d="M955 8929 c-4 -6 -5 -13 -2 -16 7 -7 27 6 27 18 0 12 -17 12 -25 -2z"/>
<path d="M6820 8925 c0 -8 -25 -40 -55 -70 -30 -30 -55 -59 -55 -64 0 -17 43
-41 72 -41 24 0 28 4 28 28 0 20 9 33 35 50 42 29 55 22 55 -27 0 -44 -19 -66
-50 -56 -11 4 -20 2 -20 -4 0 -6 8 -11 19 -11 34 0 44 -25 37 -90 l-7 -61 35
-14 c20 -8 37 -15 39 -15 2 0 2 22 -1 48 -6 70 30 149 53 112 12 -20 35 -10
35 14 0 21 -6 25 -32 28 -31 3 -33 6 -38 48 -4 39 -9 47 -37 60 -18 8 -33 23
-33 32 0 9 -7 24 -16 32 -20 21 -64 21 -64 1z"/>
<path d="M923 8883 c-4 -10 -13 -24 -20 -31 -7 -7 -13 -18 -13 -23 0 -18 16
-8 35 24 27 45 28 47 16 47 -7 0 -15 -8 -18 -17z"/>
<path d="M867 8803 c-10 -9 -9 -23 2 -23 5 0 11 7 15 15 5 15 -5 20 -17 8z"/>
<path d="M7800 8511 c0 -12 5 -21 10 -21 6 0 10 6 10 14 0 8 -4 18 -10 21 -5
3 -10 -3 -10 -14z"/>
<path d="M7125 8453 c-37 -8 -59 -52 -57 -114 2 -51 0 -58 -23 -73 -37 -24
-28 -47 25 -62 53 -16 72 -17 48 -3 -23 13 -23 26 2 39 15 8 30 6 66 -10 52
-24 89 -18 131 22 24 22 32 81 13 93 -5 3 -10 15 -10 26 0 10 5 19 10 19 14 0
13 47 -2 56 -13 8 -172 13 -203 7z m85 -50 c-1 -16 -28 -43 -44 -43 -19 0 -20
4 -6 31 10 18 50 28 50 12z m54 -81 c12 -20 -25 -52 -60 -52 -43 0 -43 12 -1
38 35 22 53 26 61 14z"/>
<path d="M4024 8405 c-11 -17 -15 -43 -14 -87 4 -91 3 -94 -32 -108 -75 -30
-85 -65 -42 -147 33 -65 43 -146 42 -333 -1 -85 2 -165 6 -178 13 -40 74 -61
198 -68 124 -7 187 7 189 43 5 68 -7 152 -32 238 -16 55 -41 141 -55 190 -14
50 -29 104 -34 120 -5 17 -22 67 -39 112 -78 212 -142 287 -187 218z"/>
<path d="M6880 8211 c11 -22 24 -42 30 -46 5 -3 10 -16 10 -29 0 -12 12 -33
26 -47 l26 -24 -7 35 c-3 19 -15 47 -26 62 -10 15 -19 30 -19 34 0 7 -48 54
-56 54 -2 0 5 -18 16 -39z"/>
<path d="M1581 8178 c-16 -41 -37 -53 -69 -37 -15 7 -30 15 -34 16 -15 7 -48
-38 -48 -66 0 -39 -45 -53 -67 -21 -19 26 -42 26 -52 -2 -11 -29 5 -51 32 -42
17 5 19 3 14 -21 -6 -32 8 -79 35 -115 28 -38 12 -82 -33 -91 -24 -5 -39 -3
-50 7 -36 33 -89 5 -89 -46 0 -19 10 -36 31 -54 l31 -26 -32 -11 c-26 -9 -31
-16 -28 -38 6 -49 68 -35 68 16 0 14 4 21 10 18 15 -9 12 -69 -4 -100 -14 -27
-12 -55 5 -55 18 0 39 47 39 86 0 26 6 47 16 55 10 8 14 23 11 42 -3 23 0 31
16 35 12 3 29 26 43 58 19 44 28 54 48 54 14 0 28 -4 31 -10 3 -5 15 -10 26
-10 14 0 19 7 19 28 0 56 -9 69 -42 64 -35 -5 -48 9 -48 55 0 17 -5 44 -10 59
-8 21 -7 31 5 44 22 25 52 14 59 -21 7 -37 23 -37 37 -2 6 16 21 42 35 60 25
32 32 77 14 88 -6 3 -14 -4 -19 -17z m-153 -210 c-2 -13 -7 -23 -13 -23 -5 0
-11 10 -13 23 -2 15 2 22 13 22 11 0 15 -7 13 -22z"/>
<path d="M7576 8125 c-3 -8 -15 -15 -26 -15 -18 0 -16 -4 15 -31 38 -33 44
-59 20 -79 -18 -15 -17 -15 -39 27 -9 18 -28 40 -42 49 -24 16 -27 16 -62 -3
-20 -12 -57 -32 -82 -46 -57 -31 -63 -64 -22 -122 35 -50 73 -70 135 -69 26 0
47 -3 47 -8 0 -4 4 -8 9 -8 6 0 22 -11 37 -25 25 -24 28 -24 45 -9 26 23 7 58
-27 51 -17 -3 -28 1 -34 14 -15 26 -13 29 19 29 24 0 35 9 60 47 38 57 39 77
4 109 -24 22 -25 27 -13 49 11 20 11 27 0 40 -16 19 -36 19 -44 0z m-66 -134
c5 -11 10 -29 10 -40 0 -17 -5 -20 -29 -15 -24 5 -29 2 -35 -19 -9 -36 -36
-43 -58 -15 -27 36 -22 55 25 82 50 31 73 33 87 7z"/>
<path d="M1916 8113 c-4 -13 -12 -23 -17 -23 -5 0 -14 -10 -19 -22 -6 -13 -19
-36 -30 -53 -11 -16 -24 -39 -30 -50 -6 -11 -19 -33 -30 -50 -26 -39 -131
-254 -159 -325 -23 -56 -35 -86 -65 -153 -9 -21 -16 -44 -16 -52 0 -8 -6 -29
-14 -47 -7 -18 -19 -53 -25 -78 -26 -101 -44 -177 -51 -220 -4 -25 -12 -65
-18 -90 -33 -137 -44 -277 -40 -527 1 -138 7 -255 11 -259 19 -20 28 26 24
126 -11 242 22 596 72 780 7 25 19 72 27 105 8 33 21 81 29 106 8 26 15 52 15
58 0 7 9 33 21 59 11 26 26 61 34 77 7 17 20 50 28 75 9 25 27 69 41 97 14 29
26 59 26 66 0 7 7 22 15 33 8 10 15 26 15 35 0 9 7 22 15 29 8 7 15 21 15 31
0 9 7 24 15 33 8 8 15 21 15 30 0 8 4 17 9 21 6 3 21 29 36 58 14 28 35 67 46
86 11 18 18 41 16 50 -2 12 -5 11 -11 -6z"/>
<path d="M803 8043 c-3 -10 -16 -40 -28 -68 -50 -108 -107 -264 -143 -390 -11
-38 -32 -109 -46 -156 -14 -47 -26 -94 -26 -105 0 -11 -6 -43 -14 -70 -15 -55
-36 -179 -62 -359 -25 -174 -26 -660 -2 -725 9 -25 20 -66 23 -93 3 -26 10
-45 16 -42 12 8 11 181 -1 265 -6 41 -6 121 0 220 5 85 12 223 15 305 3 83 11
166 17 185 7 19 11 69 11 110 -1 46 4 81 11 90 20 24 41 86 84 240 46 168 116
376 134 397 6 8 12 43 13 79 0 35 6 69 13 76 15 15 16 58 2 58 -6 0 -13 -8
-17 -17z"/>
<path d="M1278 7999 c-23 -13 -23 -45 -2 -53 22 -9 46 13 42 37 -4 25 -17 30
-40 16z"/>
<path d="M3045 7990 c-11 -4 -29 -17 -39 -29 -11 -11 -25 -21 -33 -21 -20 0
-95 -73 -117 -114 -17 -32 -18 -40 -6 -76 18 -56 32 -66 72 -49 24 10 33 10
36 1 2 -6 11 -21 21 -33 16 -20 21 -21 55 -9 21 7 61 13 89 14 l51 1 12 49 c8
32 23 59 42 75 53 47 57 65 21 106 -34 38 -62 44 -97 19 -25 -17 -42 -11 -42
15 0 28 -41 60 -65 51z"/>
<path d="M5396 7970 c-48 -42 -96 -121 -96 -156 1 -49 44 -86 170 -146 103
-49 113 -52 140 -30 21 17 22 24 16 76 -10 73 -28 92 -100 101 -31 4 -58 11
-61 15 -2 4 11 25 30 46 38 43 40 47 25 75 -10 18 -59 49 -79 49 -6 0 -26 -14
-45 -30z"/>
<path d="M7064 7928 c14 -31 36 -50 36 -29 0 24 -21 61 -34 61 -13 0 -13 -4
-2 -32z"/>
<path d="M8100 7866 c0 -14 5 -26 10 -26 6 0 10 -15 10 -34 0 -19 4 -37 9 -40
5 -3 12 -18 15 -33 4 -16 13 -41 20 -58 8 -16 21 -55 30 -85 9 -30 23 -77 31
-103 8 -26 15 -57 15 -68 0 -11 13 -59 29 -107 16 -48 31 -113 33 -145 3 -32
10 -63 17 -70 27 -26 -5 253 -38 336 -6 16 -11 39 -11 52 0 12 -7 36 -15 51
-8 16 -15 36 -15 45 0 16 -18 66 -45 124 -8 17 -23 51 -35 77 -12 27 -26 50
-31 54 -5 3 -9 14 -9 24 0 10 -4 22 -10 25 -6 4 -10 -5 -10 -19z"/>
<path d="M7110 7869 c0 -8 11 -39 25 -67 14 -29 25 -57 25 -64 0 -6 8 -29 18
-49 17 -40 42 -52 42 -22 0 20 -38 100 -51 109 -5 3 -9 14 -9 24 0 10 -6 25
-13 32 -7 7 -18 22 -25 33 -9 15 -11 16 -12 4z"/>
<path d="M7422 7775 c-10 -21 -5 -41 39 -142 28 -65 59 -131 69 -148 12 -20
20 -55 22 -98 2 -37 9 -72 15 -78 9 -9 9 -16 1 -29 -9 -14 -7 -24 14 -48 17
-21 27 -47 32 -87 6 -51 4 -59 -14 -72 -24 -17 -26 -36 -4 -54 12 -10 20 -10
34 -1 23 14 71 -7 94 -43 34 -52 99 -14 82 47 -8 30 -59 69 -99 77 -29 6 -32
11 -45 73 -14 63 -13 67 6 86 12 12 22 16 24 10 3 -7 15 -9 31 -4 31 7 36 36
11 57 -11 9 -14 22 -10 41 5 23 1 30 -17 37 -26 10 -36 6 -45 -20 -6 -16 -10
-17 -32 -6 -31 16 -48 51 -52 106 -3 46 -1 49 60 71 42 16 43 49 2 100 l-29
37 24 11 c27 13 32 31 13 50 -19 19 -35 14 -42 -14 l-7 -26 -37 28 c-20 16
-44 36 -54 46 -27 27 -72 23 -86 -7z m102 -41 c3 -9 4 -20 0 -25 -8 -13 -32
-11 -37 4 -11 32 25 53 37 21z m75 -98 c10 -12 7 -18 -13 -31 -28 -19 -56 -14
-56 9 0 15 26 35 46 36 6 0 17 -6 23 -14z m104 -302 c8 -9 -15 -44 -29 -44
-14 0 -26 28 -18 41 6 10 37 12 47 3z m42 -314 c-3 -5 -13 -10 -21 -10 -8 0
-14 5 -14 10 0 6 9 10 21 10 11 0 17 -4 14 -10z"/>
<path d="M2546 7754 c-16 -19 -41 -53 -54 -77 -14 -23 -35 -53 -47 -67 -58
-65 -175 -335 -209 -482 l-6 -28 -126 0 c-88 0 -135 4 -160 15 -23 10 -50 13
-75 9 -35 -6 -39 -10 -39 -35 0 -15 5 -31 12 -35 16 -10 91 -5 103 7 5 5 64 9
132 9 117 0 123 -1 123 -20 0 -35 -30 -70 -59 -70 -15 0 -32 -5 -39 -12 -6 -6
-33 -15 -59 -19 -57 -8 -96 -22 -182 -63 -169 -82 -302 -336 -271 -518 15 -90
23 -121 37 -148 7 -14 13 -29 13 -33 0 -13 84 -119 127 -158 81 -76 204 -129
298 -129 51 0 65 -4 83 -22 24 -27 45 -76 36 -89 -10 -16 -221 -11 -255 7 -19
9 -38 12 -52 8 -12 -5 -26 -8 -32 -9 -16 0 -18 -67 -3 -76 24 -15 78 -9 107
12 25 18 38 20 139 16 62 -3 118 -9 125 -15 13 -11 24 -37 92 -212 32 -81 103
-240 124 -276 3 -6 28 -38 54 -70 27 -33 51 -66 54 -74 13 -31 121 -160 135
-160 10 0 11 27 0 32 -8 3 -105 138 -127 176 -5 10 -20 31 -31 47 -32 44 -90
166 -108 227 -9 29 -27 71 -39 94 -42 77 -56 109 -73 166 -14 47 -14 61 -4 73
11 13 9 19 -8 36 -43 40 -19 139 33 139 14 0 48 15 77 32 95 58 155 119 194
195 14 29 31 56 35 59 13 7 11 64 -1 64 -11 0 -50 -81 -50 -103 0 -25 -142
-157 -168 -157 -5 0 -12 -7 -16 -15 -3 -8 -14 -15 -24 -15 -11 0 -25 -7 -32
-15 -7 -8 -25 -15 -41 -15 -16 0 -29 -4 -29 -10 0 -5 -11 -10 -25 -10 -14 0
-25 4 -25 8 0 12 67 42 93 42 54 1 229 160 197 180 -20 12 -23 90 -3 90 11 0
14 -7 9 -24 -6 -26 1 -56 14 -56 17 0 47 68 53 122 6 51 5 57 -13 63 -21 7
-24 29 -11 75 l7 25 8 -22 c4 -13 12 -23 17 -23 14 0 11 40 -5 46 -9 4 -12 18
-9 47 6 53 -19 111 -82 191 -88 114 -192 161 -355 160 -99 0 -109 -2 -181 -36
-106 -49 -179 -114 -218 -193 -90 -179 -76 -340 45 -506 43 -59 88 -90 228
-155 16 -8 55 -14 88 -14 45 0 58 -3 58 -15 0 -20 -121 -21 -158 -1 -15 8 -47
22 -72 32 -45 18 -140 85 -172 120 -9 11 -26 37 -38 59 -11 22 -25 47 -30 55
-37 65 -44 98 -43 215 0 117 1 122 37 199 104 225 373 350 591 276 86 -30 132
-56 203 -118 51 -44 71 -70 96 -126 49 -106 66 -165 66 -223 0 -28 3 -59 6
-68 13 -32 24 8 24 86 0 80 -20 155 -59 219 -11 19 -24 42 -27 50 -10 22 -73
99 -114 140 -19 19 -66 51 -104 70 -68 35 -94 65 -83 94 8 20 57 21 83 1 10
-8 26 -15 36 -15 20 0 163 -105 203 -149 17 -19 37 -41 46 -51 8 -9 19 -23 23
-31 12 -25 31 -56 43 -70 16 -21 41 -108 48 -172 5 -47 4 -58 -10 -63 -18 -7
-45 -55 -45 -80 0 -9 11 -29 25 -46 18 -22 25 -41 25 -74 0 -24 4 -44 9 -44
10 0 21 24 21 47 0 8 21 35 46 59 48 47 55 77 17 82 -15 2 -23 13 -28 40 -4
20 -11 42 -16 48 -5 6 -12 33 -15 60 -4 27 -13 59 -20 71 -8 12 -14 28 -14 36
0 8 -11 34 -25 58 -13 24 -29 53 -34 64 -18 40 -186 199 -231 218 -8 4 -22 11
-30 16 -22 13 -90 39 -122 45 -20 5 -28 13 -28 27 0 22 29 118 40 134 4 6 10
23 14 39 4 16 21 59 38 95 17 36 42 91 56 121 22 48 56 104 72 120 6 6 18 28
55 98 15 29 31 55 36 58 13 8 11 24 -3 24 -7 -1 -26 -17 -42 -36z m-322 -930
c14 -5 14 -9 0 -35 -8 -16 -18 -29 -23 -29 -21 0 -70 23 -75 35 -10 26 55 45
98 29z m-138 -20 c-26 -14 -30 -14 -44 0 -15 15 -13 16 28 16 l45 -1 -29 -15z
m282 -46 c81 -58 82 -59 82 -109 0 -29 -6 -51 -15 -59 -13 -11 -13 -16 4 -44
14 -24 17 -42 12 -79 -3 -26 -10 -48 -16 -48 -5 0 -17 23 -26 52 -9 28 -22 57
-30 63 -8 6 -14 28 -15 49 0 32 2 37 23 37 26 0 31 15 7 24 -11 4 -14 13 -10
31 6 25 -11 65 -28 65 -17 0 -86 34 -86 42 0 19 55 5 98 -24z m-428 -3 c0 -16
-9 -19 -34 -9 -20 8 -11 24 15 24 10 0 19 -7 19 -15z m171 -15 c13 -7 31 -8
54 -1 29 8 39 6 60 -11 13 -10 33 -18 42 -17 37 3 53 -2 79 -24 23 -20 25 -26
15 -46 -9 -16 -20 -21 -39 -19 -22 2 -26 8 -27 33 0 18 -5 30 -12 29 -7 -1
-35 -2 -62 -2 l-49 -2 -4 -41 c-3 -34 0 -43 14 -47 12 -3 18 -14 18 -32 0 -30
17 -42 49 -33 22 6 28 27 11 38 -16 10 -1 25 25 25 33 0 37 -12 14 -46 -10
-16 -19 -39 -19 -50 0 -29 -27 -39 -35 -13 -5 16 -12 19 -34 14 -19 -4 -35 0
-53 15 -52 41 -149 24 -212 -36 -63 -60 -116 -61 -131 -2 -5 20 -1 35 14 54
31 40 23 78 -8 40 -7 -8 -20 -12 -30 -9 -26 7 -36 -15 -17 -36 9 -10 16 -21
16 -25 0 -10 -42 -45 -54 -46 -15 0 1 113 20 146 16 29 22 31 56 26 44 -5 53
13 13 28 -25 9 -25 11 -9 35 18 28 34 33 34 11 0 -15 21 -26 48 -26 9 0 26 14
37 30 19 29 23 30 66 25 35 -5 49 -3 58 9 16 19 25 20 52 6z m402 -164 c18
-14 24 -76 8 -76 -13 0 -4 -160 10 -176 12 -15 2 -57 -12 -49 -5 4 -9 14 -9
24 0 10 -7 24 -15 31 -11 9 -15 34 -15 97 0 75 3 87 22 102 24 20 17 41 -13
41 -10 0 -19 5 -19 10 0 14 22 12 43 -4z m-188 -86 c3 -6 -1 -13 -10 -16 -19
-8 -30 0 -20 15 8 14 22 14 30 1z m-231 -41 c-11 -18 -24 -8 -24 19 1 26 1 26
15 8 8 -10 12 -23 9 -27z m-71 -22 c-3 -20 -10 -37 -14 -37 -11 0 -12 74 -2
83 14 14 22 -10 16 -46z m347 -12 c0 -8 -7 -15 -15 -15 -16 0 -20 12 -8 23 11
12 23 8 23 -8z m-467 -9 c8 -8 19 -28 26 -44 18 -44 66 -75 104 -68 16 3 36
11 44 17 18 16 17 39 -3 39 -9 0 -14 6 -11 13 2 6 14 12 27 12 17 0 26 -7 30
-25 6 -27 35 -39 53 -21 6 6 19 11 29 11 10 0 27 5 37 12 11 7 26 8 37 3 22
-10 30 -12 46 -14 7 -1 5 -7 -5 -19 -11 -12 -13 -22 -6 -34 7 -13 5 -19 -8
-26 -26 -13 -43 -4 -43 23 0 30 -38 54 -51 34 -5 -8 -7 -20 -4 -26 12 -33 -6
-43 -79 -44 -49 0 -65 -3 -51 -9 11 -5 33 -9 48 -9 28 -1 31 -5 41 -52 5 -22
13 -27 47 -32 57 -8 89 9 89 45 0 33 3 33 40 12 15 -10 35 -14 44 -11 24 10
19 44 -9 63 -31 20 -32 30 -1 38 15 4 26 15 29 33 9 38 23 57 36 49 16 -10 13
-56 -4 -62 -22 -9 -19 -51 4 -59 19 -6 19 -36 -1 -61 -5 -7 -3 -14 7 -18 23
-8 18 -24 -17 -57 -36 -32 -65 -40 -50 -13 36 64 -58 74 -119 13 -10 -10 -26
-19 -34 -19 -16 0 -19 -9 -9 -34 8 -20 53 -21 60 -1 8 19 88 22 82 3 -3 -7
-13 -14 -24 -16 -10 -2 -34 -10 -53 -19 -19 -8 -62 -17 -95 -18 -51 -3 -65 0
-84 18 -23 21 -24 21 -37 4 -9 -13 -20 -16 -39 -11 -32 8 -32 11 -3 35 14 11
39 19 67 19 82 2 91 17 13 22 -122 9 -258 98 -149 98 57 0 72 33 30 63 -33 24
-71 15 -80 -18 -5 -18 -12 -24 -32 -23 -15 1 -45 -1 -67 -5 -40 -8 -40 -8 -57
35 -24 63 -31 133 -14 148 15 12 32 -2 22 -18 -3 -5 0 -25 6 -45 9 -30 15 -36
33 -31 15 4 25 -1 33 -18 12 -22 12 -21 6 7 -15 78 -16 96 -4 110 16 19 54 19
73 1z m-53 -243 c1 -32 25 -53 62 -53 42 0 79 -33 60 -52 -10 -10 -20 -8 -45
5 -41 22 -117 91 -117 106 0 19 40 13 40 -6z"/>
<path d="M1882 6635 c-23 -27 -28 -45 -12 -45 6 0 10 5 10 10 0 18 18 10 23
-10 7 -26 52 -43 78 -30 10 6 19 15 19 20 0 6 9 10 20 10 11 0 20 -4 20 -9 0
-17 43 -24 54 -10 6 8 22 20 36 26 23 11 20 13 -30 12 -89 -1 -96 0 -120 21
-13 11 -29 20 -36 20 -7 0 -19 2 -26 5 -8 3 -24 -6 -36 -20z"/>
<path d="M6477 7593 c-14 -13 -6 -43 18 -69 34 -37 44 -10 15 40 -24 39 -24
39 -33 29z"/>
<path d="M1206 7512 c8 -52 -17 -112 -47 -112 -13 0 -35 12 -50 26 l-28 27 -6
-29 c-16 -72 -40 -134 -96 -244 -56 -109 -60 -122 -57 -175 2 -32 8 -60 13
-62 6 -1 19 25 29 60 10 34 35 92 53 129 34 65 53 79 53 37 0 -31 38 -97 60
-104 16 -5 20 -15 20 -49 0 -45 21 -88 34 -68 13 22 18 146 7 175 -9 23 -14
26 -30 18 -28 -15 -66 17 -56 48 5 15 12 20 25 16 13 -4 20 0 25 15 8 26 25
26 32 0 6 -22 28 -27 40 -8 4 7 13 31 19 53 9 35 14 40 37 37 31 -3 35 13 12
44 -35 46 5 78 42 34 22 -26 33 -25 33 0 0 35 -30 68 -77 86 -34 13 -49 26
-59 51 -19 45 -36 42 -28 -5z m1 -208 c10 -26 -4 -27 -36 -3 -21 16 -27 25
-19 30 15 9 47 -7 55 -27z"/>
<path d="M6552 7416 c4 -30 15 -66 23 -82 8 -16 15 -39 15 -50 0 -12 14 -48
30 -79 30 -56 40 -128 21 -139 -17 -11 -39 5 -50 35 -12 35 -24 37 -45 7 -10
-14 -12 -26 -6 -39 8 -13 4 -21 -18 -35 -41 -28 -65 -42 -90 -53 -28 -13 -161
-148 -173 -176 -5 -11 -18 -33 -29 -50 -11 -16 -22 -37 -26 -45 -3 -8 -11 -28
-18 -45 -20 -45 -46 -139 -46 -165 0 -12 -13 -38 -30 -57 -16 -18 -30 -43 -30
-54 0 -12 20 -41 44 -64 24 -25 46 -56 49 -74 4 -17 11 -31 17 -31 13 0 13 21
0 56 -9 24 -7 31 17 56 38 39 37 92 -1 125 -23 20 -27 29 -23 56 15 84 24 124
34 142 7 11 21 40 32 65 30 65 103 154 169 205 72 55 212 129 225 116 4 -4 7
-23 5 -41 -3 -30 -12 -39 -91 -88 -87 -54 -145 -114 -193 -202 -10 -19 -23
-41 -28 -48 -34 -48 -60 -202 -36 -217 10 -6 18 19 22 74 2 19 9 36 16 39 9 3
12 -25 12 -115 0 -74 4 -123 11 -130 15 -15 3 -32 -28 -44 -19 -7 -23 -13 -17
-32 9 -29 51 -71 58 -58 4 5 -1 14 -9 19 -12 6 -14 16 -9 38 l7 29 12 -28 c19
-46 135 -175 191 -212 32 -21 65 -35 84 -35 17 0 40 -5 51 -10 10 -6 47 -13
82 -16 70 -7 157 17 228 61 21 14 42 25 47 25 15 0 101 95 129 145 44 75 61
141 62 234 1 92 -12 139 -62 226 -40 69 -127 148 -207 187 -117 57 -297 42
-425 -35 -11 -7 -53 -45 -92 -84 -40 -40 -75 -73 -78 -73 -14 0 -2 30 24 61
72 84 124 129 181 157 98 47 244 65 320 38 25 -9 57 -16 72 -16 15 0 29 -4 32
-9 4 -5 27 -19 52 -31 54 -26 140 -108 178 -168 85 -135 90 -346 11 -500 -24
-47 -133 -156 -180 -182 -22 -11 -47 -25 -55 -29 -54 -29 -93 -36 -212 -36
-88 0 -131 4 -140 13 -6 6 -20 12 -29 12 -9 0 -22 7 -29 15 -7 8 -21 15 -31
15 -9 0 -24 7 -33 15 -8 8 -19 15 -24 15 -6 0 -12 4 -14 9 -6 16 -118 101
-118 90 0 -7 20 -35 45 -64 46 -55 141 -118 194 -130 17 -4 36 -15 41 -25 14
-27 13 -90 -2 -91 -61 -5 -153 35 -256 113 -55 41 -75 45 -50 9 18 -26 143
-121 159 -121 6 0 23 -6 37 -14 15 -7 41 -18 57 -22 40 -12 44 -55 12 -126
-13 -29 -34 -78 -47 -108 -12 -30 -28 -70 -36 -88 -8 -18 -14 -38 -14 -45 0
-17 -67 -145 -96 -184 -13 -17 -24 -38 -24 -46 0 -8 -7 -17 -15 -21 -8 -3 -15
-11 -15 -19 0 -7 -13 -26 -30 -42 -16 -16 -30 -34 -30 -39 0 -6 -23 -37 -50
-70 -60 -69 -75 -95 -63 -107 12 -12 83 58 83 81 0 5 4 10 8 10 7 0 82 94 82
103 0 4 122 193 137 212 36 47 140 264 156 328 8 29 23 70 33 92 l19 40 130
-4 c72 -2 138 -7 147 -12 9 -5 35 -9 57 -9 35 0 41 3 47 25 9 38 -9 53 -59 47
-69 -8 -278 -14 -293 -8 -11 4 -8 16 11 55 14 27 32 52 41 55 9 3 45 6 81 6
36 0 77 6 91 13 15 8 45 22 67 33 120 56 265 212 265 285 0 9 7 22 15 29 22
18 22 297 0 326 -8 10 -15 27 -15 37 -1 64 -134 215 -231 263 -70 34 -163 64
-199 64 -13 0 -37 4 -54 10 -17 5 -43 12 -57 14 -26 6 -49 41 -49 76 0 19 8
20 133 20 102 0 138 -3 153 -15 10 -8 34 -15 52 -15 25 0 35 6 44 26 18 39 0
60 -48 56 -21 -2 -43 -7 -49 -12 -5 -4 -73 -10 -149 -11 -131 -3 -140 -2 -147
16 -4 11 -26 63 -48 115 -23 52 -41 102 -41 111 0 28 -40 108 -59 118 -17 9
-17 6 -9 -43z m252 -595 c10 -16 -23 -34 -52 -28 -35 7 -55 -5 -50 -29 2 -13
13 -20 36 -22 35 -4 41 -16 15 -30 -11 -7 -17 -25 -18 -56 -3 -54 -5 -58 -42
-60 -15 -1 -34 -5 -41 -9 -13 -9 -65 -1 -93 14 -21 11 -13 59 9 59 9 0 29 -12
44 -27 21 -20 31 -24 40 -15 9 9 8 16 -5 30 -9 10 -17 27 -17 38 0 22 -33 54
-55 54 -8 0 -15 -6 -15 -12 0 -7 -15 -23 -33 -34 -22 -15 -37 -35 -45 -62 -8
-25 -19 -42 -32 -45 -15 -4 -20 -14 -20 -37 0 -17 -4 -29 -9 -25 -12 7 -3 68
16 112 15 37 97 123 117 123 7 0 19 6 25 14 19 23 63 30 73 12 14 -25 31 -19
24 8 -4 18 -1 26 11 29 33 8 112 7 117 -2z m163 -33 l62 -31 -23 -22 c-13 -12
-32 -25 -41 -29 -11 -4 -15 -12 -11 -23 4 -9 -1 -24 -10 -34 -19 -21 -11 -39
16 -39 16 0 19 -5 13 -32 -5 -23 -2 -34 12 -45 27 -19 39 -17 75 13 35 30 45
26 45 -19 0 -26 5 -33 23 -35 26 -4 28 -11 5 -27 -14 -10 -23 -9 -52 7 -22 13
-45 18 -63 14 -21 -4 -31 -1 -40 14 -7 11 -18 20 -24 20 -15 0 -25 26 -18 44
6 16 -24 36 -55 36 -18 0 -20 6 -19 44 2 32 -3 51 -16 65 -11 12 -17 23 -15
25 12 12 47 8 71 -8 15 -10 32 -15 38 -11 17 10 -30 56 -50 50 -10 -3 -24 6
-38 24 -20 27 -20 30 -4 34 25 7 50 -1 119 -35z m103 -63 c10 -12 9 -16 -3
-21 -13 -5 -14 -9 -4 -26 10 -17 8 -23 -17 -44 -29 -26 -56 -28 -63 -7 -3 7 8
18 23 23 25 10 26 12 10 29 -20 22 -20 31 -1 31 9 0 18 7 21 15 8 19 18 19 34
0z m56 -123 c-21 -22 -26 -23 -26 -9 0 9 6 17 14 17 7 0 17 10 21 23 4 15 8
18 12 8 3 -7 -6 -25 -21 -39z m-747 26 c0 -7 -4 -22 -9 -33 -7 -17 -9 -15 -9
13 -1 17 4 32 9 32 6 0 10 -6 9 -12z m271 -70 c0 -6 7 -20 16 -30 15 -15 15
-23 4 -63 -10 -36 -10 -54 0 -90 14 -51 8 -65 -20 -47 -27 17 -39 15 -16 -3
10 -7 15 -18 11 -24 -8 -14 -42 -14 -51 0 -4 7 -21 9 -44 5 -35 -6 -39 -3 -59
29 -11 19 -16 35 -11 35 5 0 12 -4 15 -10 3 -5 33 -10 66 -10 l59 0 0 64 c0
64 0 64 -31 71 -19 4 -41 2 -55 -5 -38 -21 -53 -8 -40 34 10 34 12 35 48 30
25 -4 43 -1 59 10 27 19 49 21 49 4z m310 -78 c16 -8 18 -19 15 -61 -4 -50
-28 -94 -46 -83 -10 6 -11 63 -3 117 7 41 7 41 34 27z m244 -111 c-29 -57 -67
-26 -39 32 41 85 39 84 47 38 5 -29 3 -50 -8 -70z m-755 75 c2 -2 4 -23 4 -47
0 -31 -6 -50 -21 -65 -39 -39 -52 -29 -52 37 0 80 6 92 39 85 14 -4 28 -8 30
-10z m-269 -15 c0 -5 -9 -9 -20 -9 -19 0 -26 11 -14 23 8 8 34 -3 34 -14z
m588 -22 c3 -12 -4 -17 -22 -17 -32 0 -42 16 -19 29 23 13 37 9 41 -12z m332
-71 c0 -42 -14 -53 -44 -33 -12 8 -33 17 -47 19 -39 5 -28 22 18 29 24 3 46 8
49 12 16 15 24 5 24 -27z m82 -72 c-13 -23 -25 -1 -16 28 6 19 7 19 16 5 5
-10 5 -23 0 -33z m-744 5 c2 -13 8 -28 13 -33 5 -6 9 -17 9 -25 0 -26 -40 25
-47 60 -5 25 -3 31 8 27 8 -2 16 -15 17 -29z m217 -19 c3 -6 16 -8 29 -4 27 6
50 -17 42 -43 -3 -10 -2 -33 3 -51 5 -17 6 -34 2 -36 -4 -3 -26 4 -49 15 -41
20 -55 50 -32 64 6 3 10 14 10 25 0 13 -5 17 -21 13 -11 -3 -23 -12 -26 -19
-12 -32 -63 -10 -63 26 0 17 95 26 105 10z m107 -5 c0 -5 -5 -11 -11 -13 -6
-2 -11 4 -11 13 0 9 5 15 11 13 6 -2 11 -8 11 -13z m131 -5 c14 0 28 -11 40
-31 23 -40 22 -66 -3 -74 -23 -7 -26 -21 -6 -28 8 -3 22 3 32 14 9 10 28 19
41 19 13 0 23 6 23 14 0 8 6 16 13 19 16 6 77 -3 77 -13 0 -17 -41 -42 -61
-37 -30 8 -71 -20 -64 -44 9 -29 -22 -36 -46 -11 -20 22 -49 20 -49 -3 0 -7
10 -15 22 -18 45 -12 9 -17 -60 -8 -74 9 -101 7 -139 -11 -12 -6 -30 -8 -40
-4 -16 7 -16 9 7 27 39 31 69 40 91 28 14 -7 30 -7 54 1 32 11 35 15 37 53 3
67 -2 101 -15 110 -8 6 -6 7 6 3 10 -3 28 -6 40 -6z m147 -24 c0 -20 -16 -29
-40 -21 -32 10 -25 35 10 35 19 0 30 -5 30 -14z m-510 -41 c13 4 29 -1 46 -14
15 -12 33 -21 40 -21 8 0 14 -7 14 -16 0 -13 -7 -15 -35 -11 -19 3 -37 1 -40
-4 -14 -22 -74 31 -75 65 0 15 3 16 15 6 8 -6 23 -9 35 -5z m120 -110 c0 -11
-11 -14 -42 -12 -54 4 -62 25 -11 29 45 4 53 1 53 -17z"/>
<path d="M6655 6730 c-3 -5 3 -10 14 -10 12 0 21 5 21 10 0 6 -6 10 -14 10 -8
0 -18 -4 -21 -10z"/>
<path d="M3910 7400 c-187 -10 -206 -15 -235 -59 -12 -20 -32 -44 -44 -53 -26
-22 -26 -30 -3 -51 28 -26 132 -35 318 -30 158 5 171 4 178 -12 10 -26 0 -31
-89 -44 -293 -41 -433 -43 -475 -6 -54 48 -215 63 -264 24 -15 -12 -26 -30
-26 -44 0 -26 61 -102 130 -163 75 -65 77 -66 219 -53 69 7 155 17 191 22 102
17 377 24 393 10 15 -12 21 -99 32 -476 10 -297 12 -923 5 -1023 -9 -108 -22
-132 -91 -172 -69 -39 -101 -50 -274 -94 -122 -31 -125 -31 -200 -4 -40 14
-70 19 -88 14 -24 -6 -27 -11 -27 -47 0 -44 24 -98 80 -176 22 -30 40 -70 44
-95 14 -86 93 -168 163 -168 20 0 45 14 84 48 56 49 222 152 274 169 45 15 71
-2 102 -66 23 -47 28 -72 31 -151 l3 -95 -46 -68 c-39 -60 -45 -76 -45 -122 0
-29 7 -69 15 -88 8 -20 15 -56 15 -80 0 -43 21 -77 47 -77 22 0 63 43 72 75 5
19 21 133 35 253 15 119 33 267 41 327 8 61 17 149 20 196 8 109 30 148 117
214 37 28 93 77 126 110 32 33 103 100 158 149 186 168 358 348 383 401 l23
49 -17 105 c-9 58 -21 114 -25 125 -5 12 -18 53 -30 91 -12 39 -26 75 -30 80
-4 6 -11 30 -15 55 -3 25 -12 63 -19 85 -8 22 -21 67 -31 100 -27 89 -59 139
-112 174 -56 37 -87 39 -108 7 -20 -30 -14 -71 24 -181 46 -131 61 -206 61
-314 0 -96 -2 -107 -46 -218 -25 -65 -52 -135 -61 -155 -9 -22 -63 -84 -133
-151 -127 -124 -166 -155 -180 -141 -5 5 -13 101 -19 214 -9 212 -9 213 34
525 9 61 20 153 25 205 6 52 15 124 20 160 5 36 14 103 21 150 17 124 28 160
54 186 23 23 29 24 182 24 143 0 257 -13 317 -36 21 -8 56 -75 56 -106 0 -45
26 -68 79 -68 66 0 140 50 263 178 100 104 138 161 138 207 0 30 -24 42 -180
93 -187 61 -249 66 -920 68 -333 1 -666 -2 -740 -6z"/>
<path d="M7317 7363 c-10 -9 4 -85 19 -110 8 -13 22 -23 30 -23 13 0 15 7 9
38 -4 20 -13 44 -21 53 -8 8 -14 21 -14 27 0 14 -15 24 -23 15z"/>
<path d="M7822 7078 c-14 -14 -16 -44 -4 -52 15 -9 50 5 57 22 4 10 -1 22 -11
29 -22 16 -27 16 -42 1z"/>
<path d="M7670 6887 c0 -34 6 -61 18 -77 13 -20 17 -46 17 -125 0 -82 3 -100
15 -100 11 0 15 11 15 40 0 42 4 44 51 30 28 -9 94 55 94 89 0 23 -49 100 -78
124 -9 6 -32 12 -53 12 -31 0 -38 4 -43 24 -3 13 -13 26 -21 30 -12 4 -15 -4
-15 -47z m150 -113 c0 -17 -5 -24 -20 -24 -13 0 -18 5 -15 15 3 8 7 22 10 31
7 22 25 7 25 -22z"/>
<path d="M8371 6800 c-1 -19 -3 -195 -6 -390 -3 -260 -8 -378 -19 -440 -25
-138 -21 -164 23 -131 19 15 25 32 32 92 22 193 30 373 26 576 -3 196 -6 225
-22 243 -9 10 -21 34 -25 52 l-8 33 -1 -35z"/>
<path d="M1101 6720 c-6 -14 -42 -59 -81 -100 -50 -54 -70 -82 -70 -102 0 -35
19 -46 37 -22 22 30 52 65 110 126 29 31 53 60 53 65 0 4 -9 19 -20 33 l-19
25 -10 -25z"/>
<path d="M963 6694 c-8 -20 21 -49 41 -41 9 4 16 18 16 32 0 20 -5 25 -25 25
-14 0 -28 -7 -32 -16z"/>
<path d="M1077 6554 c-4 -4 -7 -18 -7 -31 0 -21 4 -24 28 -21 21 2 27 8 27 28
0 18 -6 26 -20 28 -12 2 -24 0 -28 -4z"/>
<path d="M7866 6353 c3 -12 -22 -46 -75 -103 -45 -47 -81 -92 -81 -101 0 -9 9
-24 20 -34 19 -17 20 -17 29 6 6 13 42 58 80 99 75 80 90 119 52 140 -27 14
-30 13 -25 -7z"/>
<path d="M7731 6322 c-14 -25 6 -44 38 -35 15 4 21 12 19 27 -4 28 -43 34 -57
8z"/>
<path d="M3528 6300 c-99 -53 -145 -202 -95 -310 30 -65 82 -156 105 -186 13
-16 41 -56 62 -89 22 -33 60 -87 84 -120 61 -81 104 -145 162 -237 l47 -78 57
0 c43 0 65 6 91 23 42 29 44 65 5 121 -14 21 -26 51 -26 65 0 31 -7 41 -42 63
-36 24 -129 150 -163 223 -15 33 -36 72 -47 87 -29 41 -48 130 -48 222 0 82 0
83 -35 113 -25 22 -35 40 -35 61 0 59 -54 77 -122 42z"/>
<path d="M8205 6278 c-3 -18 -5 -69 -3 -113 2 -63 6 -80 18 -80 12 0 16 18 18
90 3 95 -2 135 -18 135 -5 0 -12 -15 -15 -32z"/>
<path d="M1137 6233 c-4 -3 -7 -18 -7 -33 0 -37 -7 -40 -43 -25 -40 16 -62 8
-87 -30 -27 -41 -25 -75 8 -121 40 -55 52 -62 102 -66 37 -3 45 -7 50 -27 3
-14 11 -26 18 -29 9 -3 12 14 12 58 0 52 -4 64 -25 84 -26 24 -32 50 -15 61 6
3 10 30 10 58 0 52 -10 83 -23 70z m-17 -108 c0 -8 -4 -15 -9 -15 -13 0 -22
16 -14 24 11 11 23 6 23 -9z"/>
<path d="M7845 6170 c-14 -16 -15 -22 -5 -35 17 -20 37 -19 49 4 8 14 6 22 -8
35 -16 15 -19 15 -36 -4z"/>
<path d="M2508 5907 c-15 -12 -49 -33 -75 -47 -26 -14 -55 -30 -63 -36 -8 -6
-27 -14 -42 -18 -32 -7 -38 -26 -8 -26 50 0 198 81 234 128 16 21 16 22 -1 22
-10 -1 -30 -11 -45 -23z"/>
<path d="M7670 5893 c0 -5 -5 -35 -10 -68 -8 -48 -7 -70 6 -109 15 -43 18 -47
29 -33 15 21 39 22 54 3 14 -17 4 -46 -15 -46 -8 0 -17 -7 -20 -15 -9 -21 -31
-19 -44 5 -12 23 -35 26 -47 8 -4 -7 -10 -31 -13 -52 -6 -49 -22 -55 -53 -22
-13 14 -27 23 -30 20 -7 -8 21 -83 39 -104 8 -10 10 -21 4 -30 -7 -12 -12 -12
-37 0 -15 8 -31 16 -35 18 -5 2 -8 -8 -8 -22 0 -15 12 -39 30 -58 32 -33 36
-43 20 -53 -5 -3 -10 -15 -10 -26 0 -33 34 -19 40 16 7 43 37 45 48 3 10 -36
12 -33 32 44 19 71 32 77 85 39 l45 -32 0 26 c0 40 34 132 82 220 62 114 80
166 76 221 -2 26 -7 49 -13 51 -5 1 -18 -23 -28 -54 -20 -64 -59 -149 -79
-177 -14 -17 -16 -17 -36 18 -12 21 -22 43 -22 51 0 7 -11 22 -25 33 -18 14
-25 30 -25 53 0 49 -10 79 -26 79 -8 0 -14 -3 -14 -7z m10 -358 c7 -9 10 -18
7 -21 -10 -11 -37 5 -37 21 0 19 14 19 30 0z"/>
<path d="M1066 5883 c-4 -5 -14 -23 -21 -40 -9 -22 -21 -33 -34 -33 -20 0 -37
-32 -26 -50 11 -18 53 -11 60 10 8 25 20 25 46 -1 11 -11 36 -23 55 -26 27 -4
35 -11 40 -32 3 -14 9 -43 15 -63 7 -26 6 -44 -1 -57 -16 -31 -12 -41 21 -53
l32 -11 -23 -17 -22 -16 25 -17 c18 -12 29 -34 42 -87 10 -39 16 -72 14 -74
-2 -2 -25 -13 -51 -24 -58 -25 -64 -55 -18 -92 16 -14 29 -29 30 -33 0 -5 29
-37 64 -73 66 -67 97 -79 116 -45 14 28 13 48 -9 95 -10 23 -26 59 -34 81 -8
22 -25 65 -37 95 -39 95 -50 147 -34 161 8 6 20 9 29 6 25 -10 25 7 -1 32 -30
29 -30 32 1 61 34 31 34 88 2 118 -28 26 -37 20 -37 -24 0 -31 -21 -64 -40
-64 -10 0 -21 48 -23 101 -2 31 0 34 24 32 22 -1 28 4 32 25 4 18 0 33 -13 46
-16 17 -22 18 -49 6 -37 -15 -87 1 -96 30 -3 9 -17 22 -31 28 -29 14 -38 15
-48 5z m74 -57 c0 -8 -5 -18 -11 -22 -14 -8 -33 11 -25 25 10 16 36 13 36 -3z
m190 -598 c0 -20 -32 -48 -57 -48 -18 0 -23 5 -23 24 0 13 6 27 13 29 24 10
67 7 67 -5z m40 -118 c0 -23 -29 -35 -36 -15 -7 18 14 47 27 39 5 -3 9 -13 9
-24z"/>
<path d="M8321 5747 c-12 -24 -21 -53 -21 -66 0 -12 -7 -36 -16 -52 -17 -34
-15 -80 4 -87 7 -2 12 6 12 23 0 14 9 43 20 65 11 22 20 47 20 58 0 10 4 22 9
28 9 9 14 37 12 62 -2 24 -20 11 -40 -31z"/>
<path d="M567 5726 c-8 -22 3 -77 14 -70 11 7 11 55 0 72 -7 11 -9 11 -14 -2z"/>
<path d="M596 5602 c-3 -5 -1 -22 4 -38 8 -29 8 -29 9 9 1 36 -3 45 -13 29z"/>
<path d="M1125 5567 c-15 -11 -16 -17 -6 -36 14 -26 31 -24 42 6 11 29 -11 47
-36 30z"/>
<path d="M1137 5476 c-7 -19 18 -40 38 -32 8 3 15 15 15 26 0 14 -7 20 -24 20
-13 0 -26 -6 -29 -14z"/>
<path d="M8271 5438 c-5 -18 -19 -58 -31 -88 -12 -30 -26 -68 -30 -85 -19 -65
-76 -225 -83 -231 -4 -4 -7 -14 -7 -23 0 -9 -7 -29 -15 -45 -8 -15 -15 -34
-15 -42 0 -7 -7 -29 -16 -48 -10 -21 -14 -41 -9 -53 7 -16 9 -15 19 8 6 14 16
32 22 40 25 33 102 241 180 490 16 53 19 109 4 109 -5 0 -13 -15 -19 -32z"/>
<path d="M7224 5241 c-4 -17 -12 -32 -20 -35 -8 -3 -14 -17 -14 -31 0 -14 -4
-25 -10 -25 -5 0 -12 -11 -16 -25 -3 -13 -12 -29 -20 -36 -8 -6 -14 -18 -14
-26 0 -8 -7 -21 -15 -29 -8 -9 -15 -25 -15 -37 1 -20 4 -18 30 13 16 19 30 45
30 58 0 12 4 22 10 22 5 0 13 12 16 27 4 15 13 34 21 41 7 7 13 21 13 30 0 9
7 26 15 36 17 23 20 46 5 46 -6 0 -13 -13 -16 -29z"/>
<path d="M8004 5202 c-4 -17 -13 -37 -20 -43 -8 -6 -14 -20 -14 -29 0 -10 -7
-31 -15 -47 -8 -15 -21 -44 -29 -63 -8 -19 -28 -66 -45 -103 -32 -70 -38 -97
-22 -97 12 0 81 104 81 122 0 7 6 22 13 33 7 11 20 45 29 75 47 156 48 164 38
174 -6 6 -12 -1 -16 -22z"/>
<path d="M1216 5137 c-22 -16 -17 -50 8 -55 26 -5 38 11 30 42 -7 30 -13 31
-38 13z"/>
<path d="M7539 5114 c-10 -13 -10 -17 2 -25 30 -19 54 -5 43 25 -8 20 -28 20
-45 0z"/>
<path d="M2927 5092 c-37 -8 -87 -139 -90 -237 -2 -83 17 -125 58 -125 32 0
34 6 41 92 7 80 26 120 46 100 12 -12 14 -60 8 -190 -3 -74 -1 -85 18 -104 24
-24 79 -29 92 -8 4 7 11 47 15 89 8 97 20 142 56 215 34 69 36 104 8 140 -31
39 -70 35 -108 -11 l-31 -38 -33 36 c-35 38 -52 47 -80 41z"/>
<path d="M5323 5068 c-12 -13 -25 -37 -30 -54 -5 -21 -26 -46 -60 -73 -29 -23
-53 -50 -53 -59 0 -24 36 -57 83 -77 40 -17 45 -26 22 -45 -26 -22 -18 -56 22
-89 21 -17 41 -31 45 -31 4 0 35 25 69 55 48 43 69 55 95 55 60 0 84 15 84 55
0 29 -6 38 -38 59 -58 36 -68 52 -48 74 20 23 21 66 0 86 -8 9 -31 16 -51 16
-23 0 -45 9 -65 25 -36 31 -49 31 -75 3z"/>
<path d="M7428 5045 c-36 -50 -37 -51 -78 -30 -41 21 -45 9 -41 -113 3 -99 2
-104 -28 -152 -21 -34 -31 -63 -31 -90 0 -52 14 -51 29 1 l12 41 45 -7 c63 -9
84 0 84 36 0 25 -3 29 -22 24 -39 -9 -48 6 -53 93 -4 85 -1 91 36 72 14 -8 19
-21 19 -56 0 -65 15 -88 51 -80 22 4 31 1 39 -14 19 -36 79 -14 64 23 -4 11 4
25 22 40 30 26 28 57 -4 57 -26 0 -44 -23 -36 -45 6 -15 -9 -34 -27 -35 -4 0
-9 25 -11 57 -4 42 -10 61 -26 74 -23 18 -28 49 -12 78 9 19 45 20 113 5 29
-7 57 9 57 32 0 10 -16 14 -64 14 -36 0 -68 5 -71 10 -13 21 -36 8 -67 -35z
m30 -178 c2 -10 -3 -17 -12 -17 -10 0 -16 9 -16 21 0 24 23 21 28 -4z"/>
<path d="M1237 5053 c-15 -14 -7 -53 11 -54 23 -2 24 -2 45 6 14 6 17 2 17
-23 0 -26 -4 -31 -27 -34 -30 -3 -82 -69 -82 -103 0 -24 21 -55 38 -55 6 0 11
-7 11 -15 0 -8 -4 -15 -9 -15 -13 0 -21 -27 -15 -45 9 -22 43 -18 64 7 18 22
17 23 -6 47 -30 30 -32 71 -4 71 11 0 20 -6 20 -14 0 -28 45 -69 76 -69 37 0
174 79 174 101 0 8 -9 35 -21 58 -28 59 -78 88 -148 86 -48 0 -58 3 -82 29
-26 28 -49 36 -62 22z m229 -128 c9 -14 14 -31 11 -39 -4 -11 -90 -66 -103
-66 -13 0 -34 37 -34 62 0 27 3 30 24 24 18 -4 28 0 40 19 21 32 41 32 62 0z"/>
<path d="M1790 4958 c0 -7 24 -48 53 -92 77 -115 86 -130 94 -146 4 -8 19 -27
35 -42 15 -15 37 -45 48 -66 38 -72 261 -321 365 -407 27 -22 67 -56 90 -75
99 -83 121 -99 233 -179 128 -91 216 -141 390 -227 105 -51 142 -60 142 -34 0
11 -103 80 -120 80 -10 0 -44 17 -195 100 -33 19 -82 50 -110 69 -59 43 -156
110 -189 131 -92 59 -403 349 -465 435 -16 22 -59 71 -95 108 -36 38 -66 75
-66 82 0 7 -20 35 -45 63 -25 27 -45 55 -45 61 0 14 -102 151 -112 151 -5 0
-8 -6 -8 -12z"/>
<path d="M6999 4825 c-13 -19 -27 -35 -32 -35 -4 0 -12 -10 -17 -22 -6 -13
-22 -43 -36 -66 -14 -24 -22 -47 -18 -50 4 -4 9 -1 12 7 2 7 13 21 23 29 11 9
19 20 19 25 0 5 13 26 28 46 34 44 57 89 50 96 -3 3 -16 -10 -29 -30z"/>
<path d="M7966 4707 c-11 -17 -32 -58 -47 -89 -24 -49 -26 -59 -14 -75 13 -17
15 -17 39 6 21 19 26 34 26 70 0 25 7 55 15 65 16 21 20 56 8 56 -5 0 -17 -15
-27 -33z"/>
<path d="M7784 4701 c-26 -33 -49 -89 -40 -98 4 -4 9 2 12 14 3 12 12 24 20
27 8 3 14 16 14 30 0 13 5 26 12 28 6 2 9 9 7 14 -2 6 -13 -1 -25 -15z"/>
<path d="M1758 4610 c-7 -11 -21 -20 -31 -20 -10 0 -35 -18 -56 -40 -40 -43
-71 -52 -71 -22 0 12 14 25 40 37 47 21 50 32 14 45 -42 16 -71 12 -104 -17
-29 -24 -31 -30 -26 -67 6 -42 6 -50 3 -100 -3 -37 24 -56 53 -38 27 16 56 15
84 -3 30 -20 67 -11 102 23 23 24 26 33 21 77 -4 43 -1 55 21 84 24 33 25 34
7 47 -26 19 -43 17 -57 -6z m-53 -160 c-19 -21 -50 -27 -59 -11 -3 5 9 18 26
30 39 24 61 12 33 -19z"/>
<path d="M6985 4528 c-8 -23 1 -112 14 -148 8 -21 36 -53 67 -79 49 -39 69
-71 45 -71 -5 0 -32 21 -60 46 -59 53 -76 52 -119 -4 -15 -20 -31 -42 -37 -48
-5 -6 -41 -46 -79 -88 -75 -84 -192 -200 -225 -222 -18 -13 -21 -12 -31 5 -5
11 -10 28 -10 38 -1 10 -11 -11 -24 -46 -12 -36 -28 -67 -34 -69 -7 -2 -18 11
-26 28 -12 29 -14 31 -29 15 -28 -27 -21 -81 13 -117 17 -17 30 -35 30 -40 0
-5 22 3 49 19 47 26 51 26 69 10 26 -24 40 -21 54 8 10 22 8 29 -16 54 -31 32
-26 61 10 61 21 0 24 -4 18 -25 -5 -22 -3 -25 20 -25 15 0 29 -7 32 -15 13
-32 49 -15 111 53 53 57 63 73 63 104 0 48 -24 56 -86 28 -25 -12 -50 -18 -55
-13 -8 9 104 133 121 133 6 0 15 -11 20 -25 5 -14 21 -30 34 -35 16 -6 29 -21
35 -42 7 -26 9 -28 10 -10 1 12 9 39 20 60 10 20 21 48 25 62 3 14 13 34 21
44 12 16 17 17 30 6 20 -17 19 -42 -3 -71 -17 -23 -42 -92 -42 -118 0 -25 18
-7 54 54 21 36 41 65 46 65 4 0 13 -7 20 -15 7 -8 22 -15 34 -15 49 0 65 63
21 80 -24 9 -25 11 -10 33 17 27 81 80 107 90 28 10 70 83 75 131 7 55 -8 65
-37 23 -22 -31 -142 -137 -155 -137 -13 0 -121 85 -145 114 -18 22 -24 40 -22
72 1 42 -13 69 -23 42z m23 -311 c4 -20 -25 -34 -40 -19 -15 15 -1 44 19 40
10 -2 19 -11 21 -21z m-178 -276 c0 -11 -44 -61 -54 -61 -16 0 -4 39 17 53 26
19 37 21 37 8z"/>
<path d="M590 4512 c0 -11 7 -25 15 -32 8 -7 15 -20 15 -30 0 -10 7 -23 15
-30 8 -7 15 -20 15 -30 0 -9 11 -37 25 -61 14 -24 28 -52 31 -61 4 -10 10 -18
14 -18 9 0 100 -133 112 -162 4 -10 12 -18 18 -18 5 0 10 -5 10 -12 0 -17 102
-166 150 -218 23 -25 53 -63 68 -85 15 -22 29 -42 32 -45 3 -3 18 -23 33 -45
93 -134 554 -560 700 -646 72 -43 131 -86 191 -141 34 -31 141 -98 158 -98 5
0 60 -27 120 -60 61 -33 114 -60 118 -60 3 0 19 -13 35 -30 16 -16 32 -30 37
-30 4 0 27 -13 50 -30 22 -16 46 -30 51 -30 6 0 18 -7 28 -16 37 -33 38 -3 3
48 -46 65 -74 89 -154 131 -94 49 -260 146 -295 172 -16 12 -86 55 -155 97
-183 110 -235 147 -356 259 -60 56 -149 132 -199 169 -90 68 -178 154 -270
264 -27 32 -68 77 -91 100 -53 53 -256 325 -284 381 -6 11 -19 34 -30 50 -11
17 -29 48 -41 70 -12 22 -25 42 -30 45 -4 3 -13 17 -19 30 -22 50 -41 80 -51
80 -5 0 -9 8 -9 19 0 10 -7 24 -15 31 -8 7 -15 18 -15 25 0 7 -7 18 -15 25
-12 10 -15 9 -15 -8z"/>
<path d="M7681 4523 c-1 -7 -9 -20 -19 -30 -18 -18 -157 -226 -181 -270 -13
-26 -11 -27 24 -11 58 26 199 267 182 310 -4 9 -6 9 -6 1z"/>
<path d="M6751 4483 c-37 -45 -41 -65 -6 -32 13 13 25 29 25 36 0 6 6 13 13
16 6 2 9 7 6 11 -4 4 -21 -10 -38 -31z"/>
<path d="M8283 4443 c-17 -27 -42 -64 -56 -83 -13 -19 -46 -69 -73 -110 -60
-93 -165 -234 -314 -419 -119 -149 -121 -153 -58 -126 45 18 92 71 201 227 48
68 90 128 94 133 5 6 23 29 41 51 17 23 32 44 32 47 0 3 12 25 28 49 47 74 52
82 61 105 6 11 15 24 20 28 6 3 11 13 11 22 0 8 14 32 30 53 29 36 39 70 21
70 -4 0 -22 -21 -38 -47z"/>
<path d="M1110 4359 c0 -6 10 -26 23 -43 13 -17 26 -39 30 -48 3 -10 11 -18
17 -18 15 0 12 16 -5 30 -8 7 -15 20 -15 29 0 9 -12 27 -25 40 -14 13 -25 18
-25 10z"/>
<path d="M7755 4342 c-40 -53 -84 -127 -85 -139 0 -7 -4 -13 -9 -13 -16 0 -44
-51 -33 -62 6 -6 -10 -28 -43 -62 -57 -57 -98 -125 -86 -144 9 -15 54 32 134
141 43 58 56 83 52 99 -6 17 -4 19 14 13 15 -5 21 -2 21 10 0 8 11 37 25 64
23 43 45 122 34 121 -2 0 -13 -13 -24 -28z"/>
<path d="M1290 4343 c0 -7 9 -22 20 -33 26 -26 26 -13 0 20 -11 14 -20 19 -20
13z"/>
<path d="M1890 4278 c-5 -13 -20 -34 -34 -47 -14 -13 -26 -31 -26 -42 0 -10
38 -57 85 -105 47 -48 85 -91 85 -96 0 -5 -7 -19 -15 -32 -14 -21 -13 -24 5
-41 26 -24 50 -13 50 25 0 23 5 30 19 30 11 0 28 15 40 35 11 19 26 35 33 35
7 -1 33 -19 57 -40 l43 -40 -24 -11 c-14 -6 -32 -24 -42 -40 -16 -27 -16 -31
0 -64 16 -34 16 -37 -2 -56 -18 -20 -18 -21 1 -35 24 -18 53 -17 85 1 35 20
45 19 82 -14 41 -36 96 -64 108 -56 6 3 10 15 10 25 0 57 28 64 83 19 40 -33
45 -50 23 -68 -18 -15 -26 -57 -13 -70 24 -24 47 -11 73 44 33 67 27 88 -40
134 -36 25 -55 31 -98 31 -29 0 -65 -7 -80 -14 -16 -8 -28 -11 -28 -5 0 5 4 9
9 9 18 0 21 62 4 97 -16 34 -16 36 2 49 10 8 30 14 43 14 20 0 23 4 20 28 -3
24 -8 27 -42 30 -28 2 -47 -3 -67 -17 -16 -12 -32 -21 -37 -21 -4 0 -28 21
-52 46 -43 44 -93 74 -124 74 -9 0 -31 -14 -50 -31 -34 -29 -56 -32 -56 -6 0
6 16 28 36 48 20 21 33 42 30 48 -12 20 -42 12 -71 -19 -30 -31 -65 -40 -65
-16 0 7 18 30 40 50 22 20 40 40 40 46 0 20 -57 10 -80 -15 -22 -23 -60 -34
-60 -18 0 4 18 26 41 49 37 38 39 42 24 58 -23 23 -54 20 -65 -6z m380 -373
c0 -8 -9 -19 -19 -25 -30 -15 -33 -12 -15 15 18 28 34 33 34 10z m54 -78 c-3
-9 -15 -17 -25 -17 -19 0 -19 1 -3 26 18 27 39 20 28 -9z"/>
<path d="M6451 4200 c-85 -68 -137 -118 -130 -125 3 -3 21 8 40 25 19 16 37
30 40 30 3 0 17 9 30 21 13 12 41 35 62 52 36 30 46 47 29 47 -5 0 -37 -23
-71 -50z"/>
<path d="M7309 4017 c-42 -45 -89 -96 -103 -114 -48 -57 -198 -199 -317 -300
-156 -131 -178 -148 -289 -224 -52 -35 -97 -67 -100 -70 -6 -6 -137 -87 -176
-107 -27 -15 -24 -32 7 -32 21 0 199 104 260 152 20 15 40 28 43 28 4 0 12 5
19 10 16 14 141 109 180 137 103 75 452 419 524 517 40 54 53 86 36 86 -5 0
-42 -37 -84 -83z"/>
<path d="M6278 4057 c-7 -7 -21 -18 -32 -24 -10 -6 -14 -13 -9 -16 10 -7 73
31 73 44 0 13 -17 11 -32 -4z"/>
<path d="M6099 3972 c-13 -10 -53 -36 -89 -57 -36 -21 -78 -53 -95 -70 -20
-21 -44 -34 -70 -38 -57 -10 -160 -69 -160 -93 0 -29 38 -22 135 26 47 22 92
45 100 50 8 5 53 31 100 59 95 55 134 90 128 117 -5 25 -21 27 -49 6z"/>
<path d="M1600 3940 c0 -12 175 -188 290 -292 127 -115 188 -165 261 -213 36
-24 72 -50 80 -57 32 -30 107 -85 145 -106 23 -12 52 -28 65 -35 13 -7 51 -29
83 -50 32 -21 68 -43 80 -48 12 -5 48 -25 81 -44 96 -57 252 -130 335 -159 25
-8 70 -25 100 -37 30 -12 73 -27 95 -33 22 -7 47 -15 55 -19 23 -9 209 -63
265 -77 64 -16 182 -38 265 -49 36 -5 83 -13 105 -19 132 -37 733 -48 965 -19
263 33 382 57 574 113 26 8 56 14 65 14 9 0 25 7 35 15 11 8 27 15 37 15 9 0
22 6 28 14 6 7 25 16 41 20 17 3 30 10 30 16 0 14 -37 12 -73 -4 -18 -8 -43
-17 -57 -19 -14 -3 -45 -11 -70 -18 -53 -13 -125 -31 -195 -49 -27 -6 -75 -16
-105 -20 -30 -5 -95 -16 -145 -25 -167 -30 -209 -35 -403 -43 -138 -7 -252 -6
-405 4 -229 14 -313 25 -532 70 -38 8 -92 19 -119 24 -49 9 -182 48 -261 76
-23 8 -47 14 -54 14 -7 0 -27 6 -44 14 -18 8 -59 23 -92 34 -176 60 -507 218
-602 288 -17 13 -35 24 -40 24 -4 0 -30 15 -58 34 -27 18 -83 55 -123 82 -40
27 -82 54 -94 61 -11 6 -23 15 -27 20 -3 5 -42 36 -86 70 -105 79 -130 101
-311 276 -138 132 -184 167 -184 137z"/>
<path d="M7405 3875 c-56 -66 -317 -321 -400 -392 -122 -103 -236 -188 -375
-278 -74 -48 -147 -96 -162 -106 -15 -11 -29 -19 -31 -19 -3 0 -47 -24 -98
-53 -52 -29 -116 -64 -144 -78 -27 -13 -52 -27 -55 -30 -3 -3 -15 -11 -27 -18
-13 -6 -23 -16 -23 -21 0 -15 34 -12 66 5 16 8 36 15 45 15 8 0 19 4 25 8 5 4
36 19 69 32 181 72 528 302 745 492 165 145 206 184 284 268 82 88 130 165
124 201 -3 18 -9 14 -43 -26z"/>
<path d="M2660 3630 l0 -50 35 0 c19 0 35 -3 35 -6 0 -6 -40 -78 -77 -139 -23
-37 -25 -45 -19 -60 3 -9 18 -15 36 -15 23 0 30 -4 30 -20 0 -18 7 -20 64 -20
35 0 71 3 80 6 24 9 9 24 -25 24 -16 0 -29 5 -29 11 0 16 92 188 113 210 10
10 27 19 37 19 11 0 20 7 20 15 0 18 -49 20 -95 3 -29 -10 -36 -8 -66 14 -46
35 -94 58 -119 58 -17 0 -20 -6 -20 -50z"/>
<path d="M8224 3637 c-32 -36 -75 -90 -123 -152 -18 -22 -79 -88 -138 -147
-114 -115 -109 -104 -129 -251 -5 -37 -3 -51 11 -66 18 -21 14 -74 -7 -87 -15
-9 -194 182 -215 229 -9 20 -20 37 -24 37 -11 0 -29 -68 -29 -108 0 -27 18
-52 108 -155 115 -130 152 -154 152 -98 0 22 14 45 56 90 31 34 62 61 69 61
17 0 49 64 42 83 -3 9 -27 22 -52 28 -51 13 -72 38 -56 68 11 20 54 51 71 51
6 0 34 -25 64 -55 55 -58 83 -67 108 -37 17 19 48 80 48 94 0 6 21 53 46 105
30 63 44 103 40 118 -4 15 1 28 14 40 22 20 26 50 9 61 -7 4 -9 24 -6 54 5 44
-4 70 -24 70 -4 0 -20 -15 -35 -33z m16 -162 c11 -13 8 -21 -15 -45 -22 -23
-32 -27 -46 -19 -25 13 -24 28 3 56 25 27 41 29 58 8z m-111 -160 c27 -31 29
-38 20 -65 -16 -46 -43 -40 -98 23 l-24 27 23 25 c31 33 42 32 79 -10z"/>
<path d="M7699 3629 c-184 -157 -299 -272 -299 -299 0 -11 4 -20 8 -20 16 0
136 90 181 137 100 104 170 186 165 194 -9 15 -29 10 -55 -12z"/>
<path d="M6217 3622 c-10 -10 -17 -24 -17 -31 0 -7 -12 -28 -27 -47 -15 -21
-22 -39 -17 -44 5 -4 33 -10 63 -12 38 -3 58 -10 68 -23 10 -15 17 -17 30 -9
9 6 20 17 23 25 4 8 16 33 28 56 32 62 30 77 -12 69 -21 -4 -37 -2 -41 4 -5 8
-12 7 -22 -2 -13 -11 -18 -9 -31 10 -18 27 -24 27 -45 4z"/>
<path d="M5350 3605 c-14 -8 -35 -14 -48 -15 -13 0 -58 -12 -100 -27 -42 -14
-104 -30 -137 -34 -33 -4 -89 -13 -125 -19 -36 -5 -96 -15 -135 -21 -38 -7
-176 -14 -305 -16 -194 -3 -241 -7 -267 -21 -69 -35 -40 -42 175 -42 184 0
442 21 572 46 279 56 520 130 504 156 -8 13 -107 8 -134 -7z"/>
<path d="M3467 3584 c-12 -12 4 -24 34 -24 31 0 39 14 13 24 -20 8 -39 8 -47
0z"/>
<path d="M2503 3563 c-23 -9 -14 -31 17 -41 24 -9 33 -8 45 5 29 28 -17 55
-62 36z"/>
<path d="M5918 3559 c-10 -5 -18 -18 -18 -28 0 -11 -7 -21 -15 -25 -8 -3 -15
-15 -15 -27 0 -23 -101 -129 -123 -129 -7 0 -18 5 -25 12 -13 13 -12 13 -172
-44 -47 -17 -94 -39 -104 -49 -18 -17 -18 -20 -4 -66 11 -33 13 -52 6 -61 -16
-18 -36 2 -50 52 -15 55 -24 64 -45 43 -15 -15 -15 -22 -4 -68 9 -34 10 -54 3
-61 -14 -14 -41 28 -49 75 -3 20 -10 40 -15 43 -14 9 -142 -26 -151 -41 -5
-10 -33 -14 -99 -14 -85 0 -93 -1 -117 -26 l-26 -26 53 7 52 7 0 -42 c0 -27 6
-47 19 -60 25 -25 88 -38 104 -22 6 6 19 11 28 11 9 0 33 19 54 41 30 34 36
47 31 70 -4 21 -2 29 8 29 9 0 17 -16 21 -40 11 -66 46 -88 80 -50 12 14 25
17 46 13 18 -3 38 0 52 10 27 17 51 8 42 -16 -9 -22 29 -41 55 -27 27 14 25
36 -5 56 -19 12 -22 20 -16 33 7 12 4 24 -10 41 -24 32 -25 63 -1 58 10 -2 21
-18 26 -41 10 -38 23 -45 57 -27 22 12 26 50 5 50 -21 0 -29 43 -10 57 21 15
44 6 44 -17 0 -11 4 -21 9 -25 14 -8 33 32 26 55 -4 11 -2 20 4 20 10 0 34
-45 46 -87 3 -13 10 -23 14 -23 16 0 75 95 73 117 -1 17 3 23 20 23 20 0 21
-3 15 -69 -4 -51 -2 -73 7 -80 17 -14 43 -4 57 20 7 14 17 17 33 13 31 -7 51
17 36 45 -6 12 -20 21 -31 21 -28 0 -58 39 -58 75 l-1 30 19 -24 c30 -40 79
-2 53 40 -7 10 -12 30 -12 43 0 13 -8 27 -17 31 -17 6 -17 7 1 17 15 8 21 8
24 0 7 -21 31 -13 38 13 11 44 -27 69 -68 44z m-760 -489 c7 0 10 -4 7 -10 -8
-12 -62 -13 -69 -1 -9 13 7 23 29 17 11 -3 26 -6 33 -6z"/>
<path d="M3662 3518 c5 -15 52 -23 76 -13 14 5 14 7 2 15 -23 15 -82 12 -78
-2z"/>
<path d="M2965 3490 c-4 -6 5 -23 20 -38 22 -21 26 -33 22 -59 -3 -18 -1 -35
4 -38 21 -13 8 -35 -20 -35 -35 0 -48 -15 -31 -35 16 -20 35 -19 55 2 14 14
18 14 26 2 5 -8 9 -19 9 -26 0 -18 50 -53 76 -53 13 0 29 -9 36 -20 9 -15 24
-20 53 -20 51 0 81 17 48 26 -29 8 -29 11 2 80 35 79 34 96 -7 92 -29 -3 -35
-9 -54 -56 -12 -30 -28 -61 -37 -69 -15 -15 -18 -14 -36 8 -11 13 -20 31 -21
39 0 22 -51 183 -63 198 -12 15 -73 16 -82 2z"/>
<path d="M1870 3475 c76 -102 237 -244 383 -338 48 -31 90 -57 93 -57 4 0 27
-14 53 -32 57 -39 176 -108 221 -129 19 -9 73 -34 120 -56 87 -42 297 -130
360 -152 33 -12 170 -54 285 -88 281 -82 728 -143 1046 -143 163 0 547 31 689
55 119 20 303 61 395 89 28 9 84 25 125 36 67 19 97 30 210 77 63 26 79 35
106 64 l28 29 -27 0 c-15 0 -75 -18 -133 -40 -59 -22 -114 -40 -123 -40 -10 0
-21 -4 -26 -9 -6 -6 -28 -14 -50 -20 -22 -6 -62 -17 -90 -25 -132 -39 -281
-75 -445 -106 -58 -11 -186 -23 -415 -41 -156 -12 -458 -7 -610 11 -86 11
-311 46 -440 70 -59 11 -216 51 -290 74 -22 7 -67 21 -100 30 -139 40 -403
150 -585 242 -157 80 -184 96 -293 167 -48 31 -91 57 -95 58 -4 0 -27 16 -52
35 -25 18 -72 53 -105 76 -33 23 -96 68 -140 101 -120 90 -112 85 -95 62z"/>
<path d="M3684 3395 c-10 -8 -27 -15 -37 -15 -34 0 -94 -39 -105 -67 -45 -119
-69 -194 -62 -198 5 -3 32 -7 62 -10 29 -2 68 -12 87 -21 26 -13 38 -14 57 -5
22 10 24 15 18 46 -4 22 -2 41 6 50 11 13 16 13 42 -1 20 -10 27 -20 24 -32
-9 -28 -10 -98 -1 -111 7 -13 57 -11 103 4 20 7 22 4 22 -34 0 -39 2 -41 29
-41 37 0 51 32 26 59 -15 17 -15 19 0 25 9 3 30 6 46 6 37 0 89 21 108 43 7
10 22 17 33 17 16 0 18 -5 12 -35 -9 -51 2 -81 35 -95 30 -12 46 -35 35 -51
-3 -5 -2 -13 1 -19 17 -28 167 105 179 159 5 26 -12 47 -76 93 l-23 16 29 31
c25 26 27 33 16 46 -9 11 -22 14 -39 10 -39 -10 -58 -32 -65 -76 -6 -38 -7
-40 -39 -34 -17 3 -72 10 -121 16 -49 5 -146 21 -215 35 -121 24 -128 24 -178
9 -28 -9 -64 -15 -80 -13 -25 3 -28 6 -25 38 6 55 38 110 65 110 13 0 28 5 34
11 6 6 26 14 44 18 18 4 34 12 37 19 5 17 -60 15 -84 -3z m-80 -234 c3 -5 -1
-11 -9 -15 -15 -6 -29 7 -18 18 9 9 21 8 27 -3z m306 -45 c0 -25 -36 -60 -53
-53 -21 8 -22 36 -1 65 12 18 19 20 35 12 10 -6 19 -17 19 -24z m111 -7 c24
-12 16 -29 -15 -29 -29 0 -39 10 -25 27 14 16 15 16 40 2z m214 -67 c-13 -13
-23 22 -12 42 11 20 12 20 15 -7 2 -16 1 -32 -3 -35z m100 17 c9 -26 -10 -48
-26 -32 -12 12 -3 53 11 53 5 0 12 -9 15 -21z"/>
<path d="M7635 3364 c-20 -30 -34 -144 -17 -144 13 0 22 24 22 61 0 17 6 42
14 58 20 39 4 60 -19 25z"/>
<path d="M2610 3302 c0 -27 20 -42 56 -42 38 0 45 8 37 38 -4 18 -13 22 -49
22 -36 0 -44 -3 -44 -18z"/>
<path d="M7216 3221 c-21 -22 -33 -41 -28 -45 6 -3 17 1 25 9 9 8 19 15 24 15
11 0 43 37 43 50 0 21 -27 8 -64 -29z"/>
<path d="M4437 3133 c-14 -14 -6 -34 18 -45 22 -10 25 -18 25 -58 0 -57 20
-81 48 -59 9 8 33 23 52 33 19 10 50 34 68 54 19 19 37 31 42 26 4 -5 10 -40
12 -79 l3 -70 -52 -3 c-33 -2 -63 3 -82 12 -43 23 -53 20 -49 -11 3 -24 11
-31 53 -45 28 -9 68 -17 90 -17 28 -1 46 -7 58 -22 17 -19 20 -20 36 -5 23 21
30 20 58 -6 22 -21 23 -21 43 -3 18 16 19 20 5 35 -13 15 -12 18 13 36 15 11
36 24 46 28 14 5 16 10 9 17 -8 8 -20 6 -41 -5 -37 -19 -93 -21 -110 -4 -7 7
-12 41 -12 82 0 117 0 116 -87 116 -52 0 -84 -5 -104 -17 -26 -16 -29 -16 -47
0 -18 17 -82 24 -95 10z m150 -73 c4 -23 -13 -44 -31 -37 -9 4 -16 18 -16 32
0 22 4 26 22 23 13 -2 24 -10 25 -18z"/>
<path d="M3465 3071 c-11 -19 15 -52 38 -49 16 2 22 10 22 28 0 20 -6 26 -27
28 -14 2 -29 -2 -33 -7z"/>
<path d="M6980 3042 c0 -4 -21 -19 -46 -32 -30 -16 -55 -40 -71 -68 -23 -38
-29 -43 -53 -38 -36 7 -113 -43 -205 -134 -38 -38 -85 -81 -102 -96 -18 -14
-33 -30 -33 -35 0 -12 47 -12 54 0 3 5 34 23 68 41 101 52 200 113 203 124 2
6 6 23 9 39 5 20 12 27 30 27 24 0 80 40 144 101 34 33 44 79 17 79 -8 0 -15
-3 -15 -8z"/>
<path d="M4003 2991 c-17 -28 11 -53 43 -39 26 12 30 28 12 46 -18 18 -42 15
-55 -7z"/>
<path d="M5900 2996 c-19 -6 -45 -17 -57 -24 -12 -6 -30 -12 -41 -12 -11 0
-25 -6 -32 -14 -6 -8 -25 -16 -42 -18 -18 -2 -33 -9 -36 -15 -5 -18 48 -16 72
2 11 8 32 15 47 15 34 0 97 28 129 58 26 24 16 27 -40 8z"/>
<path d="M1350 2862 c0 -4 23 -25 50 -45 28 -21 50 -42 50 -48 0 -6 -13 -27
-30 -46 -16 -18 -30 -45 -30 -58 0 -31 35 -55 80 -55 29 1 32 2 18 11 -24 14
-22 43 5 74 21 24 23 24 51 10 19 -10 57 -15 117 -15 53 0 91 -4 95 -11 3 -6
-2 -23 -13 -37 -18 -25 -28 -27 -110 -33 -49 -3 -95 -9 -101 -13 -23 -14 -8
-88 22 -108 6 -4 45 -8 85 -8 68 0 78 3 103 27 l27 26 47 -24 c49 -26 65 -46
44 -59 -9 -5 -11 -19 -6 -43 6 -30 3 -38 -14 -47 -24 -13 -27 -61 -5 -83 8 -9
28 -18 45 -22 53 -12 83 2 120 55 47 67 64 70 136 24 67 -43 154 -60 154 -30
0 26 -135 88 -185 84 -35 -3 -40 0 -43 20 -5 31 -20 35 -70 18 -25 -9 -44 -11
-47 -5 -8 13 3 29 21 29 19 0 18 24 -3 42 -10 9 -40 28 -68 43 -87 47 -91 56
-49 110 47 63 37 69 -117 75 l-136 5 -78 60 c-44 33 -88 65 -100 72 -23 14
-65 17 -65 5z m309 -291 c17 -11 8 -36 -18 -50 -17 -9 -22 -8 -32 11 -10 18
-8 24 7 35 21 15 24 16 43 4z"/>
<path d="M7847 2822 c-32 -35 -14 -72 33 -72 31 0 50 17 50 45 0 44 -52 61
-83 27z"/>
<path d="M7334 2772 c-15 -10 -58 -111 -51 -119 4 -3 14 0 23 8 14 12 21 8 55
-31 21 -25 41 -57 44 -72 7 -31 -9 -68 -30 -68 -33 0 -130 31 -137 44 -6 10
-20 13 -48 9 -27 -4 -58 1 -99 17 -71 26 -89 20 -120 -41 -26 -49 -22 -82 7
-56 9 8 24 17 32 18 25 5 91 -11 118 -29 14 -9 41 -17 61 -18 20 -1 62 -7 95
-14 32 -6 68 -9 80 -6 20 6 66 66 66 88 0 6 10 8 25 4 35 -9 61 7 74 45 14 41
14 39 -9 39 -14 0 -42 30 -91 95 -71 96 -75 100 -95 87z"/>
<path d="M6356 2578 c-10 -6 -55 -11 -100 -10 -57 0 -86 -5 -97 -15 -9 -8 -36
-22 -60 -31 -26 -10 -64 -38 -92 -68 -77 -83 -69 -84 123 -3 190 80 231 99
254 121 23 21 4 25 -28 6z"/>
<path d="M1461 2478 c-11 -30 -3 -56 21 -63 36 -12 59 26 42 69 -9 24 -53 20
-63 -6z"/>
<path d="M2783 2483 c-24 -9 -13 -20 39 -42 71 -29 128 -38 128 -19 0 19 -20
38 -41 38 -9 0 -30 7 -45 15 -29 15 -58 18 -81 8z"/>
<path d="M6445 2381 c-20 -41 -31 -72 -25 -76 6 -3 14 5 19 18 11 29 41 43 53
25 19 -30 12 -61 -25 -116 -25 -37 -31 -57 -31 -97 0 -102 66 -144 186 -120
34 7 38 5 49 -19 21 -46 64 -26 83 40 5 16 2 23 -14 27 -17 4 -19 9 -12 24 58
112 66 173 32 228 -27 44 -67 59 -134 51 l-54 -7 -27 45 c-39 66 -57 61 -100
-23z m258 -152 c15 -16 27 -37 27 -47 0 -20 -18 -42 -35 -42 -11 0 -65 101
-65 121 0 18 44 -1 73 -32z m-167 13 c19 -12 66 -122 60 -138 -7 -19 -42 -11
-69 16 -29 27 -36 130 -10 130 4 0 13 -4 19 -8z"/>
<path d="M7954 2398 c-32 -29 -75 -64 -94 -78 -44 -31 -86 -67 -118 -102 -14
-15 -42 -36 -62 -47 -21 -11 -74 -46 -118 -78 -44 -32 -88 -64 -98 -71 -11 -7
-41 -28 -68 -47 -27 -19 -54 -35 -59 -35 -5 0 -29 -18 -54 -40 -25 -22 -52
-40 -59 -40 -12 0 -107 -48 -219 -112 -57 -32 -226 -115 -300 -147 -27 -12
-66 -29 -85 -38 -35 -16 -79 -35 -135 -59 -16 -7 -46 -20 -67 -28 -20 -9 -45
-16 -55 -16 -10 0 -23 -4 -29 -9 -5 -4 -45 -20 -89 -34 -44 -14 -105 -35 -135
-45 -62 -22 -170 -56 -245 -77 -134 -37 -170 -51 -170 -65 0 -12 12 -15 53
-14 29 1 65 6 80 12 15 6 61 20 102 32 87 26 246 78 275 90 11 5 61 25 110 46
50 20 104 43 122 50 17 8 36 14 41 14 6 0 23 6 39 14 15 8 53 22 83 31 80 24
131 46 165 70 39 27 217 115 234 115 21 0 135 56 150 73 7 9 36 28 64 42 29
14 61 31 72 38 11 6 59 34 105 61 47 28 108 71 135 97 28 26 73 65 100 87 28
21 63 51 78 66 15 14 32 26 37 26 5 0 13 6 17 13 4 7 36 34 69 60 110 83 204
169 204 186 0 20 -16 11 -76 -41z"/>
<path d="M1582 2423 c-7 -2 -17 -14 -23 -25 -9 -16 -6 -24 11 -43 32 -34 70
-17 70 32 0 18 -28 46 -42 42 -2 0 -9 -3 -16 -6z"/>
<path d="M7182 2384 c-28 -19 -29 -51 -1 -59 40 -13 82 54 43 69 -20 8 -16 9
-42 -10z"/>
<path d="M2421 2364 c-24 -7 -53 -21 -63 -31 -19 -17 -58 -92 -58 -112 0 -7
-35 -11 -94 -11 l-94 0 5 45 c5 39 3 45 -19 55 -36 17 -78 -2 -78 -35 0 -45
17 -65 54 -65 20 0 36 -6 39 -14 4 -10 30 -15 89 -18 87 -4 170 -34 192 -70
20 -33 -18 -76 -96 -109 -49 -20 -36 -33 28 -29 59 3 271 -113 365 -200 51
-47 150 -99 202 -106 25 -4 71 -3 102 1 45 5 56 10 53 23 -2 13 -18 18 -63 23
-73 7 -91 14 -197 80 -86 54 -130 87 -138 104 -3 6 21 10 60 11 76 1 124 22
148 65 18 31 35 35 79 18 15 -6 48 -12 73 -12 l45 -2 10 -83 c11 -83 23 -105
55 -99 9 2 14 11 11 22 -2 11 -2 49 0 85 9 151 2 296 -15 329 -11 21 -23 31
-34 29 -15 -3 -17 -19 -20 -111 -2 -84 -6 -109 -17 -114 -9 -3 -54 5 -102 17
-72 18 -102 21 -168 15 -44 -3 -91 -13 -104 -22 -15 -10 -27 -11 -33 -5 -15
15 -5 46 17 50 43 8 55 62 14 62 -24 0 -100 29 -117 45 -21 19 -3 44 36 51 39
7 62 20 62 35 0 12 -47 11 -55 -1 -3 -5 -28 -10 -54 -10 -32 0 -53 -5 -61 -16
-17 -19 -64 -14 -68 8 -4 19 51 84 79 93 10 4 19 11 19 16 0 12 -36 10 -89 -7z
m-21 -164 c8 -5 11 -12 8 -16 -10 -9 -78 5 -78 16 0 13 50 13 70 0z m155 -72
c14 -6 25 -14 25 -18 0 -12 -86 -90 -93 -84 -13 13 -7 69 9 92 17 25 23 26 59
10z m215 -126 c0 -11 -9 -27 -20 -37 -19 -18 -24 -18 -62 -4 -23 9 -43 20 -45
26 -4 12 50 31 95 32 25 1 32 -3 32 -17z"/>
<path d="M5693 2248 c-9 -14 -14 -367 -6 -399 7 -27 32 -24 43 7 6 14 10 111
10 215 0 180 -1 189 -19 189 -11 0 -23 -6 -28 -12z"/>
<path d="M1187 2203 c-13 -13 170 -179 273 -247 36 -23 86 -57 111 -74 26 -18
59 -32 73 -32 15 0 52 -19 87 -45 34 -25 69 -45 79 -45 9 0 36 -13 58 -30 23
-16 45 -30 49 -30 3 0 14 -6 22 -14 16 -13 119 -71 195 -109 49 -24 145 -56
168 -57 10 0 54 -20 99 -45 45 -25 86 -45 92 -45 5 0 25 -9 44 -21 48 -30 159
-70 318 -114 28 -8 73 -20 100 -28 133 -39 154 -42 171 -25 23 23 13 32 -58
52 -35 10 -83 24 -108 32 -25 7 -79 23 -120 35 -41 12 -82 25 -90 29 -8 4 -49
18 -90 31 -41 12 -103 35 -137 51 -34 15 -64 28 -67 28 -3 0 -29 11 -58 25
-28 14 -57 25 -64 25 -7 0 -25 7 -41 15 -15 8 -50 24 -78 36 -48 20 -269 129
-310 153 -11 6 -40 24 -64 40 -58 37 -173 96 -188 96 -28 0 -132 57 -148 81
-18 25 -145 124 -217 167 -21 13 -38 27 -38 33 0 5 -5 9 -12 9 -6 0 -19 7 -28
15 -9 8 -20 12 -23 8z"/>
<path d="M4375 2153 c-77 -4 -89 -11 -104 -54 -9 -27 -8 -31 15 -41 24 -11 25
-13 22 -120 l-3 -109 -82 -37 c-118 -53 -188 -140 -221 -275 -16 -63 -3 -89
40 -85 28 3 32 8 57 79 15 42 37 88 49 104 33 42 97 86 129 88 l28 2 3 -170
c1 -93 0 -180 -3 -192 l-5 -23 -288 0 c-313 0 -318 1 -324 55 -3 32 -27 42
-74 31 l-25 -7 3 -132 3 -132 43 -3 c44 -3 44 -4 46 53 l1 30 310 0 310 0 3
-179 c1 -99 -2 -184 -6 -188 -13 -13 -97 28 -132 64 -35 34 -55 75 -79 155
-16 53 -20 58 -47 61 -48 5 -58 -16 -43 -85 29 -138 120 -244 242 -283 61 -19
67 -31 67 -131 0 -110 -8 -129 -56 -129 l-35 0 3 -47 3 -48 125 -5 c152 -7
170 -2 170 43 0 41 -15 57 -55 57 -53 0 -56 7 -53 126 l3 109 53 17 c29 10 70
29 91 42 89 56 176 208 169 293 -3 35 -6 38 -35 41 -27 3 -35 -1 -42 -20 -20
-54 -33 -94 -38 -116 -8 -33 -94 -118 -139 -137 -65 -27 -65 -27 -62 177 l3
183 305 0 305 0 5 -40 c5 -38 7 -40 44 -43 24 -2 42 2 48 10 10 16 9 240 -1
257 -5 7 -24 11 -47 9 -37 -3 -39 -5 -44 -43 l-5 -40 -305 0 -305 0 -3 188
c-2 154 0 188 12 193 20 8 77 -19 119 -55 37 -33 97 -142 97 -177 0 -33 15
-46 51 -42 27 2 35 8 37 28 6 38 -28 140 -66 198 -47 72 -97 112 -179 143
l-68 26 -3 111 -3 112 41 6 c42 7 60 26 60 63 0 21 -29 42 -52 39 -7 -1 -44
-4 -83 -5z"/>
<path d="M6030 2100 c-14 -4 -37 -11 -52 -14 -37 -8 -85 -51 -109 -98 -17 -34
-18 -43 -8 -73 10 -25 10 -40 1 -59 -14 -31 -8 -36 41 -36 28 0 44 6 58 23 23
28 24 56 2 64 -31 11 -53 35 -53 58 0 17 11 27 49 44 27 11 55 21 61 21 25 0
86 -145 78 -186 -3 -20 -35 -30 -127 -43 -51 -7 -81 -27 -81 -55 0 -14 109
-114 131 -121 21 -7 53 8 87 38 26 24 15 37 -33 37 -61 0 -75 44 -18 55 54 10
108 44 123 78 15 33 7 60 -69 250 -11 29 -33 33 -81 17z"/>
<path d="M6233 1802 c-2 -10 -14 -25 -25 -33 -48 -34 -73 -61 -60 -66 7 -3 17
-16 22 -29 13 -33 39 -42 56 -19 20 27 18 33 -17 48 l-31 12 41 43 c41 42 51
62 30 62 -6 0 -13 -8 -16 -18z"/>
<path d="M5686 1772 c-9 -27 3 -54 23 -50 22 5 22 62 -1 66 -9 2 -19 -5 -22
-16z"/>
<path d="M5685 1649 c-4 -13 -2 -27 7 -36 13 -12 16 -12 27 1 15 18 5 56 -14
56 -8 0 -17 -10 -20 -21z"/>
</g>
</svg>
